<svg width="120" height="34" viewBox="0 0 120 34" fill="none" xmlns="http://www.w3.org/2000/svg">
<mask id="path-1-outside-1_763_1512" maskUnits="userSpaceOnUse" x="0" y="0" width="120" height="34" fill="black">
<rect fill="white" width="120" height="34"/>
<path d="M13.6541 32.5258C11.9902 32.5258 10.3994 32.3214 8.88144 31.9128C7.39273 31.4749 6.06456 30.8327 4.89694 29.9862C3.72931 29.1397 2.79522 28.0888 2.09464 26.8336C1.42326 25.5784 1.05838 24.1189 1 22.455C1 22.1923 1.08757 21.9734 1.26271 21.7983C1.43786 21.5939 1.67138 21.4918 1.96329 21.4918H7.87437C8.28304 21.4918 8.58954 21.5939 8.79387 21.7983C9.0274 22.0026 9.21714 22.3091 9.36309 22.7178C9.50904 23.5351 9.78635 24.2065 10.195 24.7319C10.6037 25.2281 11.1145 25.6076 11.7275 25.8703C12.3697 26.1039 13.0849 26.2206 13.873 26.2206C15.3326 26.2206 16.4564 25.7536 17.2445 24.8195C18.0327 23.8562 18.4267 22.455 18.4267 20.616V7.96194H4.24015C3.94824 7.96194 3.68553 7.85978 3.452 7.65544C3.24767 7.45111 3.1455 7.18839 3.1455 6.8673V2.5325C3.1455 2.21141 3.24767 1.94869 3.452 1.74436C3.68553 1.54002 3.94824 1.43786 4.24015 1.43786H25.4325C25.7536 1.43786 26.0163 1.54002 26.2206 1.74436C26.4541 1.94869 26.5709 2.21141 26.5709 2.5325V20.835C26.5709 23.3745 26.0163 25.52 24.907 27.2715C23.7978 28.9937 22.2799 30.3073 20.3533 31.2122C18.4267 32.0879 16.1937 32.5258 13.6541 32.5258ZM44.9137 32.5258C42.2282 32.5258 39.893 32.0879 37.908 31.2122C35.9231 30.3365 34.376 29.0229 33.2667 27.2715C32.1575 25.4909 31.5445 23.2724 31.4277 20.616C31.3985 19.3608 31.3839 18.1057 31.3839 16.8505C31.3839 15.5953 31.3985 14.3255 31.4277 13.0411C31.5445 10.4139 32.1575 8.21006 33.2667 6.42944C34.4051 4.61963 35.9668 3.26227 37.9518 2.35736C39.9368 1.45245 42.2574 1 44.9137 1C47.5409 1 49.8469 1.45245 51.8319 2.35736C53.846 3.26227 55.4223 4.61963 56.5608 6.42944C57.6992 8.21006 58.3122 10.4139 58.3998 13.0411C58.4581 14.3255 58.4873 15.5953 58.4873 16.8505C58.4873 18.1057 58.4581 19.3608 58.3998 20.616C58.283 23.2724 57.67 25.4909 56.5608 27.2715C55.4515 29.0229 53.9044 30.3365 51.9195 31.2122C49.9345 32.0879 47.5993 32.5258 44.9137 32.5258ZM44.9137 26.2206C46.4608 26.2206 47.716 25.7536 48.6793 24.8195C49.6718 23.8854 50.1972 22.3967 50.2556 20.3533C50.314 19.0689 50.3432 17.8575 50.3432 16.7191C50.3432 15.5807 50.314 14.3985 50.2556 13.1725C50.1972 11.8005 49.9345 10.6913 49.4675 9.84473C49.0296 8.96902 48.4166 8.32682 47.6285 7.91816C46.8403 7.50949 45.9354 7.30515 44.9137 7.30515C43.9213 7.30515 43.0309 7.50949 42.2428 7.91816C41.4547 8.32682 40.8271 8.96902 40.36 9.84473C39.893 10.6913 39.6302 11.8005 39.5719 13.1725C39.5427 14.3985 39.5281 15.5807 39.5281 16.7191C39.5281 17.8575 39.5427 19.0689 39.5719 20.3533C39.6594 22.3967 40.1849 23.8854 41.1482 24.8195C42.1114 25.7536 43.3666 26.2206 44.9137 26.2206ZM64.6574 32.0879C64.3363 32.0879 64.0736 31.9858 63.8692 31.7814C63.6649 31.5771 63.5627 31.3144 63.5627 30.9933V2.5325C63.5627 2.21141 63.6649 1.94869 63.8692 1.74436C64.0736 1.54002 64.3363 1.43786 64.6574 1.43786H78.012C80.5224 1.43786 82.5804 1.78814 84.1858 2.48872C85.7913 3.18929 86.9735 4.19636 87.7325 5.50994C88.5206 6.79432 88.9147 8.32682 88.9147 10.1074C88.9147 11.1583 88.7104 12.0924 88.3017 12.9097C87.9222 13.6979 87.4406 14.3547 86.8568 14.8801C86.3022 15.4055 85.7767 15.785 85.2805 16.0185C86.3897 16.544 87.3676 17.4051 88.2141 18.6019C89.0898 19.7987 89.5277 21.1999 89.5277 22.8053C89.5277 24.7319 89.0898 26.3958 88.2141 27.7969C87.3676 29.1689 86.1124 30.2343 84.4485 30.9933C82.8139 31.723 80.7997 32.0879 78.4061 32.0879H64.6574ZM71.4004 26.3958H77.5304C78.7856 26.3958 79.7343 26.0309 80.3765 25.3011C81.0187 24.5714 81.3398 23.7394 81.3398 22.8053C81.3398 21.7837 81.0041 20.9225 80.3327 20.222C79.6905 19.5214 78.7564 19.1711 77.5304 19.1711H71.4004V26.3958ZM71.4004 13.6103H77.1363C78.3331 13.6103 79.2234 13.3038 79.8073 12.6908C80.4203 12.0778 80.7268 11.2897 80.7268 10.3264C80.7268 9.39228 80.4203 8.63332 79.8073 8.04951C79.2234 7.43651 78.3331 7.13001 77.1363 7.13001H71.4004V13.6103ZM105.82 32.5258C102.901 32.5258 100.479 32.1171 98.552 31.2998C96.6254 30.4532 95.1659 29.3586 94.1734 28.0158C93.181 26.6731 92.6555 25.2427 92.5972 23.7248C92.5972 23.4913 92.6847 23.287 92.8599 23.1118C93.0642 22.9075 93.2977 22.8053 93.5604 22.8053H99.0775C99.4861 22.8053 99.7926 22.8783 99.997 23.0243C100.23 23.1702 100.435 23.3599 100.61 23.5935C100.843 24.0313 101.165 24.4546 101.573 24.8633C102.011 25.2719 102.566 25.6076 103.237 25.8703C103.938 26.1039 104.799 26.2206 105.82 26.2206C107.514 26.2206 108.783 25.9579 109.63 25.4325C110.506 24.907 110.943 24.1919 110.943 23.287C110.943 22.6448 110.71 22.1194 110.243 21.7107C109.776 21.2728 109.017 20.8933 107.966 20.5723C106.944 20.222 105.572 19.8717 103.85 19.5214C101.632 19.0543 99.7342 18.4559 98.158 17.7262C96.6109 16.9672 95.4286 15.9893 94.6113 14.7925C93.794 13.5665 93.3853 12.0486 93.3853 10.2388C93.3853 8.45818 93.8815 6.8673 94.874 5.46615C95.8957 4.06501 97.3114 2.97036 99.1212 2.18222C100.931 1.39407 103.077 1 105.558 1C107.572 1 109.338 1.26271 110.856 1.78814C112.403 2.31357 113.702 3.01415 114.753 3.88986C115.804 4.76558 116.592 5.69968 117.117 6.69215C117.672 7.65544 117.964 8.60413 117.993 9.53823C117.993 9.77176 117.905 9.99068 117.73 10.195C117.555 10.3702 117.336 10.4577 117.073 10.4577H111.294C110.973 10.4577 110.695 10.3994 110.462 10.2826C110.228 10.1658 110.024 9.97609 109.849 9.71337C109.674 9.07118 109.207 8.51656 108.448 8.04951C107.718 7.55327 106.755 7.30515 105.558 7.30515C104.273 7.30515 103.266 7.53868 102.537 8.00573C101.836 8.44359 101.486 9.12956 101.486 10.0637C101.486 10.6475 101.675 11.1583 102.055 11.5962C102.464 12.034 103.12 12.4135 104.025 12.7346C104.959 13.0557 106.229 13.3914 107.835 13.7417C110.491 14.2379 112.636 14.8655 114.271 15.6245C115.906 16.3542 117.103 17.3175 117.862 18.5143C118.621 19.6819 119 21.1561 119 22.9367C119 24.9216 118.431 26.6439 117.292 28.1034C116.183 29.5337 114.636 30.6284 112.651 31.3873C110.666 32.1463 108.389 32.5258 105.82 32.5258Z"/>
</mask>
<path d="M13.6541 32.5258C11.9902 32.5258 10.3994 32.3214 8.88144 31.9128C7.39273 31.4749 6.06456 30.8327 4.89694 29.9862C3.72931 29.1397 2.79522 28.0888 2.09464 26.8336C1.42326 25.5784 1.05838 24.1189 1 22.455C1 22.1923 1.08757 21.9734 1.26271 21.7983C1.43786 21.5939 1.67138 21.4918 1.96329 21.4918H7.87437C8.28304 21.4918 8.58954 21.5939 8.79387 21.7983C9.0274 22.0026 9.21714 22.3091 9.36309 22.7178C9.50904 23.5351 9.78635 24.2065 10.195 24.7319C10.6037 25.2281 11.1145 25.6076 11.7275 25.8703C12.3697 26.1039 13.0849 26.2206 13.873 26.2206C15.3326 26.2206 16.4564 25.7536 17.2445 24.8195C18.0327 23.8562 18.4267 22.455 18.4267 20.616V7.96194H4.24015C3.94824 7.96194 3.68553 7.85978 3.452 7.65544C3.24767 7.45111 3.1455 7.18839 3.1455 6.8673V2.5325C3.1455 2.21141 3.24767 1.94869 3.452 1.74436C3.68553 1.54002 3.94824 1.43786 4.24015 1.43786H25.4325C25.7536 1.43786 26.0163 1.54002 26.2206 1.74436C26.4541 1.94869 26.5709 2.21141 26.5709 2.5325V20.835C26.5709 23.3745 26.0163 25.52 24.907 27.2715C23.7978 28.9937 22.2799 30.3073 20.3533 31.2122C18.4267 32.0879 16.1937 32.5258 13.6541 32.5258ZM44.9137 32.5258C42.2282 32.5258 39.893 32.0879 37.908 31.2122C35.9231 30.3365 34.376 29.0229 33.2667 27.2715C32.1575 25.4909 31.5445 23.2724 31.4277 20.616C31.3985 19.3608 31.3839 18.1057 31.3839 16.8505C31.3839 15.5953 31.3985 14.3255 31.4277 13.0411C31.5445 10.4139 32.1575 8.21006 33.2667 6.42944C34.4051 4.61963 35.9668 3.26227 37.9518 2.35736C39.9368 1.45245 42.2574 1 44.9137 1C47.5409 1 49.8469 1.45245 51.8319 2.35736C53.846 3.26227 55.4223 4.61963 56.5608 6.42944C57.6992 8.21006 58.3122 10.4139 58.3998 13.0411C58.4581 14.3255 58.4873 15.5953 58.4873 16.8505C58.4873 18.1057 58.4581 19.3608 58.3998 20.616C58.283 23.2724 57.67 25.4909 56.5608 27.2715C55.4515 29.0229 53.9044 30.3365 51.9195 31.2122C49.9345 32.0879 47.5993 32.5258 44.9137 32.5258ZM44.9137 26.2206C46.4608 26.2206 47.716 25.7536 48.6793 24.8195C49.6718 23.8854 50.1972 22.3967 50.2556 20.3533C50.314 19.0689 50.3432 17.8575 50.3432 16.7191C50.3432 15.5807 50.314 14.3985 50.2556 13.1725C50.1972 11.8005 49.9345 10.6913 49.4675 9.84473C49.0296 8.96902 48.4166 8.32682 47.6285 7.91816C46.8403 7.50949 45.9354 7.30515 44.9137 7.30515C43.9213 7.30515 43.0309 7.50949 42.2428 7.91816C41.4547 8.32682 40.8271 8.96902 40.36 9.84473C39.893 10.6913 39.6302 11.8005 39.5719 13.1725C39.5427 14.3985 39.5281 15.5807 39.5281 16.7191C39.5281 17.8575 39.5427 19.0689 39.5719 20.3533C39.6594 22.3967 40.1849 23.8854 41.1482 24.8195C42.1114 25.7536 43.3666 26.2206 44.9137 26.2206ZM64.6574 32.0879C64.3363 32.0879 64.0736 31.9858 63.8692 31.7814C63.6649 31.5771 63.5627 31.3144 63.5627 30.9933V2.5325C63.5627 2.21141 63.6649 1.94869 63.8692 1.74436C64.0736 1.54002 64.3363 1.43786 64.6574 1.43786H78.012C80.5224 1.43786 82.5804 1.78814 84.1858 2.48872C85.7913 3.18929 86.9735 4.19636 87.7325 5.50994C88.5206 6.79432 88.9147 8.32682 88.9147 10.1074C88.9147 11.1583 88.7104 12.0924 88.3017 12.9097C87.9222 13.6979 87.4406 14.3547 86.8568 14.8801C86.3022 15.4055 85.7767 15.785 85.2805 16.0185C86.3897 16.544 87.3676 17.4051 88.2141 18.6019C89.0898 19.7987 89.5277 21.1999 89.5277 22.8053C89.5277 24.7319 89.0898 26.3958 88.2141 27.7969C87.3676 29.1689 86.1124 30.2343 84.4485 30.9933C82.8139 31.723 80.7997 32.0879 78.4061 32.0879H64.6574ZM71.4004 26.3958H77.5304C78.7856 26.3958 79.7343 26.0309 80.3765 25.3011C81.0187 24.5714 81.3398 23.7394 81.3398 22.8053C81.3398 21.7837 81.0041 20.9225 80.3327 20.222C79.6905 19.5214 78.7564 19.1711 77.5304 19.1711H71.4004V26.3958ZM71.4004 13.6103H77.1363C78.3331 13.6103 79.2234 13.3038 79.8073 12.6908C80.4203 12.0778 80.7268 11.2897 80.7268 10.3264C80.7268 9.39228 80.4203 8.63332 79.8073 8.04951C79.2234 7.43651 78.3331 7.13001 77.1363 7.13001H71.4004V13.6103ZM105.82 32.5258C102.901 32.5258 100.479 32.1171 98.552 31.2998C96.6254 30.4532 95.1659 29.3586 94.1734 28.0158C93.181 26.6731 92.6555 25.2427 92.5972 23.7248C92.5972 23.4913 92.6847 23.287 92.8599 23.1118C93.0642 22.9075 93.2977 22.8053 93.5604 22.8053H99.0775C99.4861 22.8053 99.7926 22.8783 99.997 23.0243C100.23 23.1702 100.435 23.3599 100.61 23.5935C100.843 24.0313 101.165 24.4546 101.573 24.8633C102.011 25.2719 102.566 25.6076 103.237 25.8703C103.938 26.1039 104.799 26.2206 105.82 26.2206C107.514 26.2206 108.783 25.9579 109.63 25.4325C110.506 24.907 110.943 24.1919 110.943 23.287C110.943 22.6448 110.71 22.1194 110.243 21.7107C109.776 21.2728 109.017 20.8933 107.966 20.5723C106.944 20.222 105.572 19.8717 103.85 19.5214C101.632 19.0543 99.7342 18.4559 98.158 17.7262C96.6109 16.9672 95.4286 15.9893 94.6113 14.7925C93.794 13.5665 93.3853 12.0486 93.3853 10.2388C93.3853 8.45818 93.8815 6.8673 94.874 5.46615C95.8957 4.06501 97.3114 2.97036 99.1212 2.18222C100.931 1.39407 103.077 1 105.558 1C107.572 1 109.338 1.26271 110.856 1.78814C112.403 2.31357 113.702 3.01415 114.753 3.88986C115.804 4.76558 116.592 5.69968 117.117 6.69215C117.672 7.65544 117.964 8.60413 117.993 9.53823C117.993 9.77176 117.905 9.99068 117.73 10.195C117.555 10.3702 117.336 10.4577 117.073 10.4577H111.294C110.973 10.4577 110.695 10.3994 110.462 10.2826C110.228 10.1658 110.024 9.97609 109.849 9.71337C109.674 9.07118 109.207 8.51656 108.448 8.04951C107.718 7.55327 106.755 7.30515 105.558 7.30515C104.273 7.30515 103.266 7.53868 102.537 8.00573C101.836 8.44359 101.486 9.12956 101.486 10.0637C101.486 10.6475 101.675 11.1583 102.055 11.5962C102.464 12.034 103.12 12.4135 104.025 12.7346C104.959 13.0557 106.229 13.3914 107.835 13.7417C110.491 14.2379 112.636 14.8655 114.271 15.6245C115.906 16.3542 117.103 17.3175 117.862 18.5143C118.621 19.6819 119 21.1561 119 22.9367C119 24.9216 118.431 26.6439 117.292 28.1034C116.183 29.5337 114.636 30.6284 112.651 31.3873C110.666 32.1463 108.389 32.5258 105.82 32.5258Z" stroke="#E50000" stroke-width="2" mask="url(#path-1-outside-1_763_1512)"/>
</svg>
