<svg width="126" height="59" viewBox="0 0 126 59" fill="none" xmlns="http://www.w3.org/2000/svg">
<g clip-path="url(#clip0_803_8)">
<path d="M17.3364 0L12.5307 27.375L11.3643 34.4243L10.2043 27.7893L5.30928 0L4.72928 0.082858H0V58.3957H5.30928V30.855L8.62998 49.855H14.0221L17.4193 30.4407V58.4786H22.7286V0.082858H18.0057L17.3364 0Z" fill="#FF0000"/>
<path d="M46.7032 0.165527H36.8368H32.6875V58.4784H37.9968H46.7032V53.1691H37.9968V31.7663H45.0461V26.4634H37.9968V5.47481H46.7032V0.165527Z" fill="#FF0000"/>
<path d="M70.0984 0.165527H56.6562V58.4784H61.9655V32.1869H67.8548V58.4784H73.2471V32.0212L70.5128 29.3634L73.2471 26.6291V3.23765L70.0984 0.165527ZM67.8548 5.47481V26.7119H61.9655V5.47481H67.8548Z" fill="#FF0000"/>
<path d="M86.3517 0.165527L83.2031 3.23765V55.4127L86.3517 58.4784H96.4731L99.6281 55.4127V31.8491H91.1639V37.1584H94.236V53.1691H88.5124V5.47481H94.236V16.7562H99.6281V3.23765L96.4731 0.165527H86.3517Z" fill="#FF0000"/>
<path d="M126.003 0.165527H120.611V53.1691H114.887V0.165527H109.578V55.4127L112.733 58.4784H122.855L126.003 55.4127V0.165527Z" fill="#FF0000"/>
</g>
<defs>
<clipPath id="clip0_803_8">
<rect width="126" height="59" fill="white"/>
</clipPath>
</defs>
</svg>
