<svg width="37" height="36" viewBox="0 0 37 36" fill="none" xmlns="http://www.w3.org/2000/svg">
<path d="M17.2208 35.8352C16.7835 35.8352 16.4117 35.704 16.1056 35.4416C15.8432 35.1355 15.712 34.7637 15.712 34.3264V20.6816H2.264C1.82667 20.6816 1.45493 20.5504 1.1488 20.288C0.8864 19.9819 0.7552 19.6101 0.7552 19.1728V17.0736C0.7552 16.6363 0.8864 16.2864 1.1488 16.024C1.45493 15.7179 1.82667 15.5648 2.264 15.5648H15.712V2.3136C15.712 1.87627 15.8432 1.5264 16.1056 1.264C16.4117 0.957866 16.7835 0.804799 17.2208 0.804799H19.5168C19.9541 0.804799 20.304 0.957866 20.5664 1.264C20.8725 1.5264 21.0256 1.87627 21.0256 2.3136V15.5648H34.5392C34.9765 15.5648 35.3264 15.7179 35.5888 16.024C35.8949 16.2864 36.048 16.6363 36.048 17.0736V19.1728C36.048 19.6101 35.8949 19.9819 35.5888 20.288C35.3264 20.5504 34.9765 20.6816 34.5392 20.6816H21.0256V34.3264C21.0256 34.7637 20.8725 35.1355 20.5664 35.4416C20.304 35.704 19.9541 35.8352 19.5168 35.8352H17.2208Z" fill="#EB4C4C"/>
</svg>
