<svg width="55" height="47" viewBox="0 0 55 47" fill="none" xmlns="http://www.w3.org/2000/svg">
<path fill-rule="evenodd" clip-rule="evenodd" d="M1.58074 1.58074H44.3042L39.9235 5.96152L38.4864 4.52448C38.1772 4.2153 37.6721 4.2153 37.3629 4.52448C37.0537 4.82931 37.0537 5.33009 37.3629 5.63927L38.8087 7.08066L36.2438 9.64556L34.798 8.20852C34.4888 7.89934 33.9924 7.89934 33.6832 8.20852C33.3741 8.5177 33.3741 9.01413 33.6832 9.32331L35.1203 10.7647L32.5554 13.3339L31.1183 11.8926C30.8092 11.5834 30.304 11.5834 29.9948 11.8926C29.6857 12.2017 29.6857 12.6982 29.9948 13.0073L31.4406 14.4487L28.8713 17.018L27.43 15.5766C27.1208 15.2674 26.6243 15.2674 26.3152 15.5766C26.006 15.8858 26.006 16.3866 26.3152 16.6914L27.7522 18.1328L25.1873 20.702L23.7459 19.2606C23.4411 18.9514 22.936 18.9514 22.6268 19.2606C22.3176 19.5698 22.3176 20.0706 22.6268 20.3754L24.0725 21.8168L21.5033 24.3861L20.0619 22.9447C19.7527 22.6355 19.2563 22.6355 18.9471 22.9447C18.6379 23.2538 18.6379 23.7546 18.9471 24.0595L20.3841 25.5008L17.8149 28.0701L16.3778 26.6287C16.073 26.3195 15.5679 26.3195 15.2587 26.6287C14.9495 26.9379 14.9495 27.4387 15.2587 27.7435L16.7044 29.1849L14.1352 31.7541L12.6895 30.3127C12.3846 30.0036 11.8882 30.0036 11.579 30.3127C11.2698 30.6219 11.2698 31.1227 11.579 31.4275L13.0161 32.8689L10.4468 35.4382L9.00978 33.9968C8.70495 33.6876 8.19981 33.6876 7.89063 33.9968C7.58145 34.306 7.58145 34.8067 7.89063 35.1116L9.33637 36.553L6.75842 39.1222L5.32139 37.6808C5.01656 37.3716 4.51577 37.3716 4.21095 37.6808C3.90177 37.99 3.90177 38.4908 4.21095 38.8L5.64798 40.237L1.58074 44.3042V1.58074ZM0.492076 46.9388C0.592233 46.9823 0.696744 46.9998 0.788192 46.9998C0.997215 46.9998 1.20188 46.9214 1.34994 46.769L7.32017 40.7987V40.7944L29.4244 18.6945V18.6902H29.4331L33.1128 15.0105V15.0061L46.769 1.34994C46.9998 1.1235 47.0694 0.783837 46.9432 0.487721C46.8256 0.191605 46.5338 0 46.2159 0H0.788192C0.357082 0 0 0.352727 0 0.792547V46.2116C0 46.5295 0.195959 46.8169 0.492076 46.9388Z" fill="white"/>
<path fill-rule="evenodd" clip-rule="evenodd" d="M9.47433 9.47616H25.2382L9.47433 25.2356V9.47616ZM8.38567 27.8746C8.49018 27.9138 8.59034 27.9355 8.68614 27.9355C8.89081 27.9355 9.09548 27.8528 9.24789 27.7004L27.7029 9.24537C27.9337 9.01893 27.9947 8.67926 27.8771 8.3875C27.7508 8.09138 27.4678 7.89978 27.1412 7.89978H8.68614C8.25068 7.89978 7.89795 8.25251 7.89795 8.68797V27.143C7.89795 27.4609 8.09391 27.7526 8.38567 27.8746Z" fill="white"/>
<path fill-rule="evenodd" clip-rule="evenodd" d="M49.297 15.9861L47.6945 14.3792C47.3854 14.0701 46.8889 14.0701 46.5841 14.3792C46.2749 14.6884 46.2749 15.1892 46.5841 15.4984L48.1779 17.0922L45.5956 19.644L44.0061 18.0633C43.7013 17.7541 43.2005 17.7541 42.8957 18.0633C42.5865 18.3725 42.5865 18.8732 42.8957 19.1824L44.4634 20.7544L41.8811 23.3063L40.3265 21.7473C40.0173 21.4381 39.5209 21.4381 39.2117 21.7473C38.8981 22.0565 38.8981 22.5573 39.2117 22.8665L40.7619 24.4167L38.1796 26.9685L36.6381 25.4313C36.3289 25.1222 35.8325 25.1222 35.5276 25.4313C35.2185 25.7405 35.2185 26.2413 35.5276 26.5505L37.0518 28.079L34.4695 30.6264L32.9584 29.1154C32.6492 28.8106 32.1528 28.8106 31.8436 29.1154C31.5301 29.4246 31.5301 29.9253 31.8436 30.2345L33.346 31.7369L30.7637 34.2887L29.27 32.7994C28.9608 32.4946 28.4644 32.4946 28.1552 32.7994C27.8504 33.1086 27.8504 33.6094 28.1552 33.9186L29.6358 35.3991L27.0535 37.951L25.5903 36.4878C25.2811 36.1786 24.7847 36.1786 24.4712 36.4878C24.162 36.7926 24.162 37.2934 24.4712 37.6026L25.93 39.0614L23.3477 41.6132L21.9019 40.1718C21.5928 39.8627 21.0963 39.8627 20.7871 40.1718C20.4823 40.4767 20.4823 40.9774 20.7871 41.2866L22.2242 42.7193L19.8161 45.0926L15.0695 40.3504L47.3026 8.12596L52.2539 13.0728L49.297 15.9861ZM47.86 6.44941C47.5465 6.14023 47.05 6.14023 46.7409 6.44941L13.3973 39.793C13.2449 39.941 13.1665 40.1414 13.1665 40.3504C13.1665 40.5594 13.2449 40.7597 13.3973 40.9078L19.2587 46.7648C19.4067 46.9215 19.6114 46.9999 19.8161 46.9999C20.0164 46.9999 20.2123 46.9215 20.3691 46.7691L23.8833 43.2985L23.9094 43.2854L23.9181 43.2636L53.926 13.6389C54.0785 13.4909 54.1568 13.2906 54.1568 13.0772C54.1655 12.8682 54.0785 12.6679 53.926 12.5198L47.86 6.44941Z" fill="white"/>
</svg>
