<svg width="51" height="40" viewBox="0 0 51 40" fill="none" xmlns="http://www.w3.org/2000/svg">
<path d="M47.1685 32.5039C47.1685 34.6205 45.4299 36.3213 43.3512 36.3213H7.29449C5.17795 36.3213 3.47717 34.6205 3.47717 32.5039V7.33228C3.47717 6.80315 3.59055 6.31181 3.77953 5.89606L19.011 23.1685C20.5984 24.9827 22.9039 26.0409 25.3228 26.0409C27.7417 26.0409 30.0472 24.9827 31.6346 23.1685L46.8661 5.89606C47.0551 6.31181 47.1685 6.80315 47.1685 7.33228V32.5039ZM43.3512 3.51496C43.6535 3.51496 43.9181 3.55276 44.2205 3.62835L28.989 20.863C28.0819 21.9213 26.7213 22.526 25.3228 22.526C23.9244 22.526 22.5638 21.9213 21.6567 20.863L6.4252 3.62835C6.72756 3.55276 6.99213 3.51496 7.29449 3.51496H43.3512ZM43.3512 0H7.29449C3.25039 0 0 3.28819 0 7.33228V32.5039C0 36.548 3.25039 39.7984 7.29449 39.7984H43.3512C47.3953 39.7984 50.6457 36.548 50.6457 32.5039V7.33228C50.6457 3.28819 47.3953 0 43.3512 0Z" fill="#E40000"/>
</svg>
