<svg width="36" height="36" viewBox="0 0 36 36" fill="none" xmlns="http://www.w3.org/2000/svg">
<path fill-rule="evenodd" clip-rule="evenodd" d="M9.79101 0H26.3645C31.6534 0 36.0002 4.34679 36.0002 9.63574V26.0379C36.0002 31.3269 31.6534 35.6522 26.3645 35.6522H9.79101C4.50206 35.6522 0.155273 31.3269 0.155273 26.0379V9.63574C0.155273 4.34679 4.50206 0 9.79101 0ZM9.44841 26.8088H13.1528V14.839H9.44841V26.8088ZM11.2899 13.2759C12.5104 13.2759 13.474 12.2909 13.474 11.0704C13.474 9.84987 12.5104 8.84347 11.2899 8.84347C10.0694 8.84347 9.10581 9.84987 9.10581 11.0704C9.10581 12.2909 10.0694 13.2759 11.2899 13.2759ZM19.0842 20.5348C19.0842 18.8432 19.855 17.8368 21.3539 17.8368C22.7029 17.8368 23.3667 18.8004 23.3667 20.5348C23.3667 22.2479 23.3667 26.8088 23.3667 26.8088H27.0497C27.0497 26.8088 27.0497 22.4406 27.0497 19.2287C27.0497 16.0167 25.2296 14.475 22.7029 14.475C20.1548 14.475 19.0842 16.445 19.0842 16.445V14.839H15.5296V26.8088H19.0842C19.0842 26.8088 19.0842 22.3763 19.0842 20.5348Z" fill="white"/>
</svg>
