<svg width="32" height="40" viewBox="0 0 32 40" fill="none" xmlns="http://www.w3.org/2000/svg">
<path d="M15.5372 2.79489C8.50488 2.79489 2.76484 8.50488 2.76484 15.5372C2.76484 21.0368 11.2096 31.6754 15.5372 36.544C19.8648 31.6754 28.3095 21.0368 28.3095 15.5372C28.3095 8.50488 22.5695 2.79489 15.5372 2.79489ZM15.5372 40C15.1465 40 14.7859 39.8197 14.5154 39.5492C13.9143 38.9181 0 23.8317 0 15.5372C0 6.9722 6.9722 0 15.5372 0C24.1022 0 31.0744 6.9722 31.0744 15.5372C31.0744 23.8317 17.16 38.9181 16.559 39.5492C16.2885 39.8197 15.9279 40 15.5372 40Z" fill="#E40000"/>
<path d="M15.5335 10.6689C13.2195 10.6689 11.3261 12.5622 11.3261 14.8763C11.3261 17.1903 13.2195 19.0836 15.5335 19.0836C17.8476 19.0836 19.7409 17.1903 19.7409 14.8763C19.7409 12.5622 17.8476 10.6689 15.5335 10.6689ZM15.5335 21.8785C11.6868 21.8785 8.53125 18.723 8.53125 14.8763C8.53125 10.9995 11.6868 7.87402 15.5335 7.87402C19.3802 7.87402 22.5358 10.9995 22.5358 14.8763C22.5358 18.723 19.3802 21.8785 15.5335 21.8785Z" fill="#E40000"/>
</svg>
