<svg width="49" height="40" viewBox="0 0 49 40" fill="none" xmlns="http://www.w3.org/2000/svg">
<path fill-rule="evenodd" clip-rule="evenodd" d="M21.4338 33.9997H27.5578C27.9677 33.9997 28.0598 34.9367 28.3191 35.698L28.888 37.6724H20.112C20.1371 37.3043 20.2626 37.0616 20.3797 36.7186L20.9486 34.8363C21.0239 34.5518 21.0825 33.9997 21.4338 33.9997ZM1.63138 31.448V27.6666H47.3686V31.448C47.3686 32.0755 46.8834 32.3683 46.2476 32.3683H2.75243C2.11661 32.3683 1.63138 32.0755 1.63138 31.448ZM1.63138 2.66041C1.63138 2.16681 1.92419 1.74014 2.45125 1.74014H46.5487C47.0758 1.74014 47.3686 2.16681 47.3686 2.66041V25.9348H1.63138V2.66041ZM0 2.35086V31.7576C0 32.4519 0.501963 33.1965 0.9119 33.4977C1.63138 34.008 1.94929 33.9997 3.16237 33.9997H19.3925C19.334 34.7275 18.3886 36.9361 18.3719 37.6724H16.2302C15.1509 37.6724 14.8916 39.4125 16.5397 39.4125H32.4603C34.1084 39.4125 33.8491 37.6724 32.7698 37.6724H30.6281C30.6114 37.2541 30.2517 36.1916 30.1262 35.8235C29.9923 35.4219 29.6326 34.3929 29.6075 33.9997H45.8376C47.0172 33.9997 47.2682 34.0499 48.0212 33.5312C48.4897 33.2216 49 32.477 49 31.7576V2.35086C49 1.62302 48.5733 0.995561 48.155 0.644186C47.6531 0.217517 47.0256 0 46.1388 0H2.85283C1.28837 0 0 0.936998 0 2.35086Z" fill="white"/>
<path fill-rule="evenodd" clip-rule="evenodd" d="M6.12393 6.5339H15.9206V21.2414H6.12393V6.5339ZM4.38379 5.622V22.0529C4.38379 22.6804 4.87739 22.9732 5.51321 22.9732H16.4309C17.0751 22.9732 17.5603 22.6804 17.5603 22.0529V5.622C17.5603 5.1284 17.2341 4.80212 16.7405 4.80212H5.20366C4.71007 4.80212 4.38379 5.1284 4.38379 5.622Z" fill="white"/>
<path fill-rule="evenodd" clip-rule="evenodd" d="M24.8052 6.5339H42.8759V11.336H24.8052V6.5339ZM23.1738 5.622V12.2563C23.1738 12.7833 23.6005 13.0678 24.0941 13.0678H43.4866C44.1224 13.0678 44.6077 12.7833 44.6077 12.1559V5.622C44.6077 5.1284 44.2898 4.80212 43.7962 4.80212H23.9853C23.4917 4.80212 23.1738 5.1284 23.1738 5.622Z" fill="white"/>
<path fill-rule="evenodd" clip-rule="evenodd" d="M24.8052 16.4394H36.342V21.2415H24.8052V16.4394ZM23.1738 15.3184V22.1534C23.1738 22.7809 23.6842 22.9733 24.2949 22.9733H36.9527C37.5885 22.9733 38.0738 22.6805 38.0738 22.053V15.5191C38.0738 15.0256 37.7559 14.7076 37.2623 14.7076H23.9853C23.6172 14.7076 23.1738 14.9837 23.1738 15.3184Z" fill="white"/>
<path fill-rule="evenodd" clip-rule="evenodd" d="M23.0737 30.0175C23.0737 31.0382 24.153 30.8374 25.115 30.8374C26.1357 30.8374 26.2528 29.1976 25.115 29.1976C24.153 29.1976 23.0737 28.9969 23.0737 30.0175Z" fill="white"/>
</svg>
