<svg width="47" height="47" viewBox="0 0 47 47" fill="none" xmlns="http://www.w3.org/2000/svg">
<path fill-rule="evenodd" clip-rule="evenodd" d="M16.0566 2.98075C14.2489 4.57758 12.6538 6.75991 11.3778 9.36806H6.96493C9.35747 6.49377 12.4943 4.31144 16.0566 2.98075ZM40.0351 9.36806H35.6222C34.3462 6.75991 32.7511 4.57758 30.9434 2.98075C34.5057 4.31144 37.5894 6.49377 40.0351 9.36806ZM30.9434 44.0193C32.8043 42.3692 34.4525 40.0804 35.7285 37.419H40.2477C37.802 40.3465 34.612 42.6886 30.9434 44.0193ZM6.75226 37.419H11.2715C12.5475 40.0804 14.1957 42.3692 16.0566 44.0193C12.388 42.6886 9.19796 40.3465 6.75226 37.419ZM8.34729 22.675H1.75452C1.91403 18.3635 3.34955 14.3715 5.63575 11.0181H10.6335C9.25113 14.4247 8.40045 18.4168 8.34729 22.675ZM22.6493 11.0181V22.675H10.0486C10.1018 18.3635 11.0057 14.3715 12.4412 11.0181H22.6493ZM22.6493 1.75651V9.36806H13.2387C15.5781 5.0034 18.8744 2.12911 22.6493 1.75651ZM24.3507 9.36806V1.75651C28.1256 2.12911 31.4219 5.0034 33.7613 9.36806H24.3507ZM36.9514 22.675H24.3507V11.0181H34.5588C35.9943 14.3715 36.8982 18.3635 36.9514 22.675ZM24.3507 35.7157V24.3783H36.9514C36.8982 28.53 36.0475 32.4689 34.6652 35.7157H24.3507ZM24.3507 45.2435V37.419H33.8676C31.5814 41.8901 28.1787 44.8709 24.3507 45.2435ZM22.6493 37.419V45.2435C18.8213 44.8709 15.4186 41.8901 13.1324 37.419H22.6493ZM10.0486 24.3783H22.6493V35.7157H12.3348C10.9525 32.4689 10.1018 28.53 10.0486 24.3783ZM1.75452 24.3783H8.34729C8.40045 28.4768 9.19796 32.3624 10.5271 35.7157H5.47624C3.24321 32.4689 1.91403 28.53 1.75452 24.3783ZM41.5238 35.7157H36.4729C37.802 32.3624 38.5995 28.4768 38.6527 24.3783H45.2455C45.086 28.53 43.7568 32.4689 41.5238 35.7157ZM45.2455 22.675H38.6527C38.5995 18.4168 37.7489 14.4247 36.3665 11.0181H41.3643C43.6505 14.3715 45.086 18.3635 45.2455 22.675ZM4.5724 9.6342C1.70136 13.5198 0 18.3103 0 23.5266C0 36.4609 10.5803 47 23.5 47C36.4197 47 47 36.4609 47 23.5266C47 18.3103 45.2986 13.573 42.4808 9.68743L42.4276 9.58097C38.121 3.77916 31.2624 0 23.5 0C15.7376 0 8.87896 3.77916 4.5724 9.58097V9.6342Z" fill="white"/>
</svg>
