<svg width="48" height="48" viewBox="0 0 48 48" fill="none" xmlns="http://www.w3.org/2000/svg">
<path d="M13.3103 39.0989L14.1422 39.5527C17.0538 41.2921 20.3814 42.2374 23.7846 42.2374C34.1832 42.2374 42.6912 33.7673 42.6912 23.3308C42.6912 12.8943 34.1832 4.42415 23.7846 4.42415C13.3481 4.42415 4.87791 12.8943 4.87791 23.3308C4.87791 26.7718 5.82325 30.175 7.63828 33.1244L8.12986 33.9185L6.23919 40.9896L13.3103 39.0989ZM0 47.2288L3.4032 34.5992C1.47472 31.1203 0.453759 27.2634 0.453759 23.3308C0.453759 10.4743 10.928 0 23.7846 0C36.6411 0 47.0775 10.4743 47.0775 23.3308C47.0775 36.1873 36.6411 46.6238 23.7846 46.6238C19.9276 46.6238 16.1085 45.6784 12.7053 43.8256L0 47.2288Z" fill="#E40000"/>
<path fill-rule="evenodd" clip-rule="evenodd" d="M32.4447 26.5819C31.4994 25.9769 30.2515 25.3718 29.1171 25.8256C28.2474 26.1659 27.6802 27.5272 27.113 28.2078C26.8484 28.586 26.508 28.6238 26.0543 28.4725C22.8023 27.1491 20.3067 24.9937 18.4916 22.0065C18.1891 21.5149 18.2647 21.1746 18.6051 20.7208C19.1723 20.078 19.8529 19.3595 20.0041 18.4898C20.1554 17.6579 19.7395 16.637 19.3991 15.8807C18.9076 14.8976 18.416 13.4985 17.4328 12.9313C16.5253 12.4397 15.3531 12.7044 14.559 13.3472C13.1599 14.4816 12.4793 16.2588 12.5171 18.0361C12.5171 18.5276 12.5549 19.0192 12.7062 19.5108C12.9709 20.6452 13.5003 21.7418 14.1053 22.7627C14.559 23.519 15.0506 24.2753 15.58 24.9937C17.3194 27.376 19.4748 29.4179 22.0083 30.9682C23.2561 31.7245 24.6174 32.4051 26.0165 32.8589C27.5668 33.3883 28.9659 33.9177 30.6675 33.6151C32.4447 33.2748 34.1841 32.1782 34.8648 30.4766C35.0916 29.9473 35.2051 29.3801 35.0916 28.8507C34.827 27.7541 33.3522 27.1113 32.4447 26.5819Z" fill="#E40000"/>
</svg>
