<svg width="452" height="456" viewBox="0 0 452 456" fill="none" xmlns="http://www.w3.org/2000/svg">
<path d="M178.795 119.081C180.027 116.405 181.74 113.998 183.808 112.029C187.942 108.065 193.238 106.465 198.449 107.413C201.409 107.966 204.142 109.028 206.478 111.052C206.492 111.067 206.464 111.095 206.45 111.081C203.745 109.382 200.602 108.305 197.373 108.419C194.3 108.518 191.284 109.481 188.523 111.067C185.847 112.61 183.595 114.961 181.91 117.708C181.075 119.067 180.409 120.54 179.9 122.055C179.333 123.726 179.163 125.425 178.767 127.124C178.54 128.073 176.954 128.583 176.855 127.351C176.614 124.632 177.662 121.531 178.795 119.081Z" fill="#CD0E0E"/>
<path d="M109.935 169.675C111.068 165.725 112.809 161.972 115.075 158.602C117.369 155.189 120.215 152.244 123.458 149.964C126.516 147.812 130.014 146.155 133.596 146.269C133.186 143.267 133.752 139.996 134.588 137.079C135.48 133.921 136.867 130.919 138.68 128.243C142.277 122.933 147.502 119.194 153.222 117.523C156.408 116.589 159.934 115.881 163.12 116.646C164.82 117.056 163.772 119.704 162.271 119.633C160.586 119.534 158.915 119.336 157.23 119.35C155.531 119.364 153.86 119.732 152.217 120.256C149.017 121.276 145.958 123.06 143.367 125.425C140.549 127.988 138.298 131.287 136.768 134.898C135.182 138.608 134.687 142.36 134.234 146.311C134.389 146.325 134.545 146.325 134.701 146.353C138.241 146.821 141.597 149.27 142.701 152.995C145.618 153.688 149.073 154.793 152.061 153.49C154.738 152.329 156.224 149.539 157.23 146.736C159.297 141.043 159.863 134.445 164.82 130.565C170.597 126.034 177.465 127.747 183.497 129.659C187.334 130.876 191.058 132.278 195.165 132.108C198.662 131.967 202.188 130.537 204.425 127.336C204.468 127.266 204.609 127.308 204.553 127.393C201.494 133.1 194.825 134.558 189.486 133.779C185.649 133.227 182.024 131.868 178.257 130.976C175.241 130.268 172.112 130.112 169.011 130.777C166.051 131.415 163.63 133.227 162.072 136.13C160.586 138.919 159.878 142.134 159.071 145.164C158.334 147.911 157.428 150.757 155.587 152.895C153.534 155.303 150.702 156.322 147.842 156.351C142.178 156.407 134.389 151.819 130.382 158.913C129.901 159.763 128.442 159.48 128.626 158.39C129.136 155.402 131.77 153.632 134.262 152.881C136.853 152.102 139.459 152.315 141.993 152.839C140.167 150.389 137.689 148.463 134.729 148.152C131.218 147.769 127.607 149.794 124.704 151.975C119.167 156.138 115.004 162.383 112.88 169.279C112.3 171.162 111.903 173.102 111.648 175.056C111.535 176.047 111.436 177.053 111.408 178.058C111.379 179.134 111.478 180.239 111.195 181.286C110.898 182.348 109.425 183.071 108.901 181.867C108.151 180.168 108.519 177.718 108.717 175.863C108.944 173.767 109.369 171.7 109.935 169.675Z" fill="#CD0E0E"/>
<path d="M144.003 140.661C145.83 140.166 147.628 140.279 149.313 140.944C149.002 139.741 148.804 138.509 148.733 137.263C148.634 135.606 148.733 133.921 149.059 132.278C149.214 131.457 149.455 130.664 149.767 129.885C150.092 129.064 150.545 128.597 150.984 127.832C151.013 127.776 151.083 127.804 151.069 127.86C150.899 128.356 150.914 128.894 150.829 129.39C150.772 129.715 150.673 130.027 150.616 130.353C150.475 131.103 150.347 131.854 150.262 132.618C150.092 134.091 150.135 135.578 150.333 137.022C150.545 138.466 150.928 139.84 151.494 141.143C151.763 141.766 152.075 142.403 152.443 142.983C152.768 143.309 153.066 143.677 153.321 144.074C153.519 144.315 153.731 144.555 153.887 144.824C154.085 145.164 154.128 145.504 154.057 145.815C154.085 145.943 154.114 146.07 154.142 146.198C154.298 147.189 152.74 148.124 152.202 147.246C152.018 146.92 151.834 146.608 151.664 146.283C151.352 145.915 151.126 145.447 150.914 144.994C150.418 144.159 149.852 143.38 149.087 142.743C147.643 141.567 145.83 140.916 143.989 141.001C143.791 141.015 143.833 140.718 144.003 140.661Z" fill="#CD0E0E"/>
<path d="M123.23 165.059C123.471 164.804 123.797 164.705 124.123 164.734C124.236 164.28 124.406 163.856 124.646 163.473C125.1 162.737 126.077 162.921 126.261 163.7C126.487 164.748 126.133 165.951 126.133 167.027C126.119 168.146 126.218 169.293 126.402 170.383C126.799 172.692 127.478 174.957 128.838 176.755C128.965 176.911 128.725 177.081 128.597 176.968C126.841 175.339 125.312 173.371 124.576 170.922C124.335 170.1 124.108 169.109 123.981 168.075C123.188 169.59 122.452 171.12 122.069 172.847C121.545 175.226 121.517 177.704 122.013 180.026C122.466 182.108 123.33 184.105 124.505 185.761C125.723 187.475 127.28 188.721 128.767 190.123C129.093 190.434 128.555 190.93 128.243 190.845C124.08 189.712 121.05 184.883 120.016 180.522C118.855 175.609 119.747 168.939 123.23 165.059Z" fill="#CD0E0E"/>
<path d="M93.0839 216.588C92.4609 212.821 93.5087 208.871 94.7406 205.274C97.1337 198.222 100.858 191.638 105.559 186.073C106.848 184.558 108.207 183.099 109.651 181.768C111.138 180.395 112.653 179.304 114.296 178.214C114.437 178.115 114.536 178.313 114.423 178.426C112.243 180.819 110.147 183.382 108.15 185.96C106.125 188.565 104.355 191.369 102.699 194.257C101.056 197.075 99.6684 200.077 98.4931 203.15C97.2753 206.35 96.0575 209.777 95.9442 213.232C95.9018 214.917 96.1567 216.574 96.808 218.061C97.3319 219.222 98.0966 219.901 98.8896 220.68C99.5126 219.477 99.9516 218.16 100.037 216.673C100.065 216.22 100.815 215.979 100.957 216.432C102.33 220.85 98.6347 225.141 96.1425 228.327C93.5512 231.64 91.5971 235.279 90.6342 239.485C89.6996 243.506 89.558 247.797 90.5492 251.719C91.5688 255.811 93.7494 258.927 96.1567 262.113C98.0399 264.619 99.9091 267.267 100.546 270.396C101.198 268.853 101.934 267.324 102.755 265.837C102.826 265.709 103.095 265.681 103.038 265.879C102.061 269.433 101.481 273.115 101.028 276.768C100.56 280.549 100.306 284.245 100.532 288.026C100.929 294.384 102.614 301.237 107.287 305.216C109.311 306.929 111.761 308.02 114.352 308.26C114.551 305.952 115.131 303.843 115.669 301.605C115.698 301.478 115.896 301.449 115.882 301.605C115.584 303.743 115.726 306.052 116.037 308.303C116.122 308.289 116.193 308.289 116.278 308.289C118.006 308.161 117.892 310.682 116.576 311.376C116.646 311.73 116.717 312.098 116.788 312.438C117.524 315.864 118.714 319.15 120.498 322.024C124.307 328.141 130.183 332.234 136.98 333.352C140.789 333.975 144.797 333.565 148.577 332.389C149.413 332.134 150.362 332.701 150.461 333.65C150.574 334.74 149.753 335.448 148.917 335.774C141.497 338.634 133.115 337.416 126.615 333.296C120.328 329.317 116.207 322.534 114.735 314.689C114.551 313.726 114.409 312.735 114.338 311.744C108.207 312.027 102.954 307.496 100.291 301.676C97.2045 294.922 96.9355 286.553 98.0683 279.006C98.2523 277.83 98.4931 276.669 98.7904 275.536C98.3515 275.466 98.0116 275.168 98.0116 274.559C98.0683 270.524 95.7743 267.281 93.6361 264.364C91.2856 261.15 89.0766 257.964 87.9721 253.914C85.7914 245.956 86.7968 236.766 91.5971 229.728C93.0981 227.534 95.2221 225.622 96.9779 223.498C94.769 222.309 93.4945 219.038 93.0839 216.588Z" fill="#CD0E0E"/>
<path d="M145.887 327.957C147.657 330.166 149.527 332.318 151.891 333.763C154.185 335.165 156.734 335.858 159.396 335.929C161.903 336 164.579 335.419 166.929 334.315C168.204 333.706 169.393 332.956 170.526 332.078C170.923 331.78 171.305 331.426 171.687 331.086C167.312 330.223 163.234 327.504 161.195 323.327C160.472 321.826 162.865 320.268 163.8 321.5C165.542 323.794 167.524 325.833 170.073 327.051C172.438 328.184 175.086 328.637 177.705 328.297C183.185 327.589 188.24 323.355 190.605 317.833C190.704 317.606 191.044 317.677 190.959 317.946C189.09 324.474 183.893 329.642 177.833 331.016C176.332 331.37 174.76 331.455 173.202 331.299C172.721 332.049 172.098 332.743 171.56 333.324C170.441 334.542 169.153 335.561 167.807 336.439C165.089 338.209 162.101 339.186 159.014 339.313C152.939 339.568 145.902 335.83 143.537 329.614C142.999 328.212 144.995 326.838 145.887 327.957Z" fill="#CD0E0E"/>
<path d="M193.125 113.474C193.394 112.851 194.144 112.653 194.583 113.092C195.15 113.672 195.178 114.833 195.504 115.612C195.886 116.49 196.41 117.255 197.033 117.906C198.364 119.28 200.021 120.214 201.904 120.37C202.088 120.384 202.06 120.653 201.89 120.696C199.823 121.219 197.614 120.78 195.957 119.421C195.9 120.2 195.745 120.993 195.532 121.772C195.107 123.287 194.3 125.17 192.898 125.878C192.828 125.921 192.728 125.864 192.743 125.765C192.828 124.391 193.507 123.004 193.748 121.63C194.017 120.087 193.861 118.572 193.72 117.042C193.705 116.929 193.72 116.816 193.748 116.702C193.252 115.796 192.686 114.508 193.125 113.474Z" fill="#CD0E0E"/>
<path d="M195.59 107.045C196.524 106.465 197.742 106.323 198.733 105.912C199.781 105.473 200.8 104.992 201.792 104.44C203.831 103.321 205.884 101.933 207.569 100.248C207.583 100.234 207.611 100.248 207.597 100.262C205.997 102.231 204.369 103.93 202.344 105.332C201.296 106.054 200.206 106.663 199.073 107.158C198.053 107.612 196.793 108.291 195.717 108.22C195.066 108.178 195.08 107.371 195.59 107.045Z" fill="#CD0E0E"/>
<path d="M186.555 206.789C190.69 202.045 196.736 199.766 202.428 200.771C205.586 201.337 208.475 203.037 210.755 205.401C212.949 207.681 215.017 211.023 215.201 214.506C215.257 215.554 213.686 216.333 213.275 215.257C212.241 212.538 211.321 209.989 209.452 207.823C207.682 205.784 205.43 204.254 202.924 203.518C197.855 202.017 191.936 203.943 188.07 208.162C183.553 213.076 182.562 220.524 183.213 226.967C183.907 233.806 186.555 240.009 188.891 246.225C190.194 249.68 191.468 253.163 192.446 256.76C192.899 258.488 193.267 260.215 193.493 262.013C193.72 263.953 193.677 265.893 193.748 267.862C193.748 267.975 193.564 268.031 193.564 267.904C193.451 264.279 192.233 260.583 191.157 257.241C190.067 253.829 188.679 250.558 187.277 247.301C184.473 240.787 181.627 233.934 181.004 226.542C180.424 219.717 181.995 212.042 186.555 206.789Z" fill="#CD0E0E"/>
<path d="M198.378 225.764C199.61 226.103 200.927 226.387 202.102 226.911C203.263 227.406 204.325 228.213 205.274 229.063C207.313 230.861 208.857 233.099 209.494 235.945C209.72 237.021 208.12 237.488 207.681 236.653C206.549 234.515 205.402 232.348 203.887 230.521C202.357 228.695 200.46 226.783 198.322 225.877C198.251 225.849 198.307 225.749 198.378 225.764Z" fill="#CD0E0E"/>
<path d="M151.863 294.893C153.859 287.629 159.651 281.795 166.646 281.597C170.313 281.498 173.924 282.999 176.062 286.213C176.756 287.247 175.269 288.493 174.491 287.629C170.568 283.296 163.856 282.857 159.226 286.822C154.312 291.056 152.627 298.15 153.463 304.494C153.704 306.391 154.199 308.232 154.865 309.988C155.544 311.744 156.182 313.712 157.215 315.227C157.272 315.312 157.144 315.411 157.088 315.34C155.983 313.924 154.78 312.721 153.888 311.107C152.996 309.478 152.316 307.68 151.834 305.853C150.9 302.285 150.857 298.547 151.863 294.893Z" fill="#CD0E0E"/>
<path d="M224.829 169.562C225.778 169.123 226.84 169.137 227.831 168.826C228.822 168.5 229.785 168.019 230.72 167.495C232.646 166.39 234.472 164.733 235.69 162.737C235.718 162.68 235.818 162.709 235.789 162.779C234.727 165.059 233.425 167.027 231.598 168.642C230.677 169.449 229.658 170.1 228.582 170.61C227.548 171.12 226.16 171.828 225.056 171.686C224.022 171.545 223.739 170.058 224.829 169.562Z" fill="#CD0E0E"/>
<path d="M112.852 244.611C115.514 238.338 120.739 233.807 126.743 232.051C129.915 231.13 133.285 231.003 136.273 232.277C136.358 232.32 136.315 232.461 136.216 232.461C130.878 232.263 125.497 233.509 121.15 237.389C116.845 241.212 114.438 247.018 113.886 252.866C113.56 256.307 114.041 259.649 115.047 262.835C115.231 263.43 114.353 264.152 113.999 263.571C110.728 258.318 110.303 250.643 112.852 244.611Z" fill="#CD0E0E"/>
<path d="M113.375 193.563C114.225 191.425 115.33 189.372 116.618 187.503C117.284 186.54 118.02 185.634 118.785 184.77C119.563 183.906 120.371 182.943 121.433 182.589C122.041 182.391 122.679 183.057 122.353 183.722C121.914 184.642 121.107 185.251 120.427 185.959C119.705 186.738 119.025 187.574 118.388 188.452C117.1 190.236 116.023 192.204 115.188 194.286C114.367 196.325 113.772 198.434 113.319 200.601C113.206 201.167 113.092 201.748 112.979 202.314C114.848 199.723 117.184 197.514 119.889 196.098C121.517 195.234 122.353 197.472 120.866 198.463C116.335 201.479 112.767 206.166 111.393 211.787C110.034 217.395 111.124 222.988 113.644 227.774C115.089 230.507 117.142 232.9 119.493 234.713C119.592 234.798 119.478 234.982 119.365 234.939C114.098 232.928 110.218 228.072 108.788 222.153C107.329 216.163 108.561 209.663 111.69 204.311C111.535 203.036 111.506 201.748 111.648 200.403C111.889 198.066 112.512 195.744 113.375 193.563Z" fill="#CD0E0E"/>
<path d="M127.563 245.644C132.817 249.453 135.975 256.024 136.017 263.104C136.045 266.63 135.38 270.198 133.921 273.441C132.109 277.476 129.192 280.776 126.516 284.146C123.301 288.21 120.186 292.882 119.86 298.32C119.804 299.354 118.175 299.609 118.034 298.546C116.901 289.484 124.717 283.664 129.56 277.306C129.574 277.221 129.602 277.151 129.645 277.066C131.118 274.191 131.84 271.076 131.457 267.89C131.075 264.789 129.985 261.56 127.847 259.521C127.79 259.465 127.903 259.351 127.96 259.394C130.495 261.39 132.335 264.052 132.902 267.522C133.072 268.584 133.142 269.674 133.114 270.764C134.813 265.865 134.898 260.413 133.44 255.486C132.321 251.747 130.282 248.179 127.464 245.786C127.393 245.715 127.493 245.602 127.563 245.644Z" fill="#CD0E0E"/>
<path d="M166.816 235.591C174.519 235.633 178.923 243.945 180.438 251.195C182.194 259.635 182.251 268.824 181.585 277.533C181.259 281.809 180.679 285.944 179.631 290.05C179.914 290.065 180.169 290.249 180.211 290.645C180.565 293.959 181.387 297.102 182.59 300.118C183.171 301.577 183.893 302.922 184.615 304.281C185.408 305.782 186.017 307.326 187.022 308.671C187.037 308.699 186.994 308.742 186.966 308.714C185.805 307.538 184.474 306.462 183.511 305.074C182.619 303.786 181.882 302.299 181.231 300.855C180.07 298.277 179.305 295.46 178.866 292.585C178.852 292.585 178.852 292.585 178.852 292.585C178.852 292.571 178.852 292.571 178.852 292.571C178.781 292.061 178.71 291.551 178.64 291.028C178.597 290.674 178.795 290.376 179.064 290.206C179.73 282.489 180.424 274.786 180.056 267.054C179.872 262.976 179.475 258.912 178.795 254.919C178.158 251.138 177.139 247.344 175.156 244.214C173.004 240.816 169.917 238.635 166.15 237.927C164.777 237.672 165.669 235.576 166.816 235.591Z" fill="#CD0E0E"/>
<path d="M118.728 228.256C124.251 221.586 133.667 217.338 140.974 221.884C144.004 223.781 146.454 227.264 146.652 231.243C146.751 233.226 146.326 235.237 146.482 237.205C146.666 239.669 148.266 240.986 150.546 240.292C153.066 239.527 154.836 237.049 157.272 236.072C159.155 235.322 161.109 235.491 162.37 237.162C162.426 237.233 162.299 237.346 162.242 237.276C160.472 235.152 157.442 236.78 155.658 238.224C154.015 239.555 152.5 241.071 150.518 241.694C148.861 242.232 147.077 242.005 145.887 240.646C144.811 239.428 144.585 237.615 144.528 235.945C144.485 234.09 144.641 232.164 144.188 230.365C143.763 228.68 142.871 227.208 141.753 226.018C139.232 223.356 135.593 222.181 132.039 222.761C127.55 223.498 123.727 226.443 120.272 229.629C119.365 230.465 117.794 229.388 118.728 228.256Z" fill="#CD0E0E"/>
<path d="M102.614 236.483C102.727 236.454 102.784 236.624 102.671 236.681C99.6264 238.04 96.8368 240.278 94.9394 243.251C94.9535 243.237 94.9677 243.237 94.9818 243.223C96.2279 242.841 97.4174 242.642 98.6918 242.529C99.2865 242.472 99.8812 242.43 100.476 242.444C101.099 242.472 101.793 242.699 102.416 242.628C102.529 242.614 102.501 242.784 102.416 242.812C101.736 242.996 101.085 243.492 100.419 243.775C99.8388 244.016 99.2299 244.2 98.6351 244.37C97.3891 244.738 96.1996 244.965 94.9252 245.064C94.4721 245.106 94.2455 244.851 94.203 244.511C94.1464 244.611 94.0897 244.71 94.0473 244.823C92.0932 248.759 91.7958 253.546 92.9286 257.652C93.3393 259.139 91.0878 260.427 90.5922 258.912C87.5053 249.666 93.3109 238.04 102.614 236.483Z" fill="#CD0E0E"/>
<path d="M122.905 284.344C124.108 282.815 125.411 281.385 126.813 280.068C128.243 278.737 129.815 277.604 131.288 276.329C131.415 276.23 131.557 276.4 131.429 276.514C129.008 278.595 127.124 281.597 125.468 284.401C123.839 287.162 122.48 290.093 121.375 293.123C119.152 299.184 118.161 305.768 118.671 312.14C118.982 315.864 119.591 319.461 120.441 323.044C120.837 324.644 118.331 325.451 117.68 324.12C114.692 318.017 114.097 310.696 114.961 303.715C115.825 296.748 118.628 289.782 122.905 284.344Z" fill="#CD0E0E"/>
<path d="M111.492 292.684C113.602 289.3 115.16 285.845 115.953 281.866C116.732 277.972 116.746 273.979 116.675 270.042C116.675 270.014 116.718 269.986 116.732 270.028C119.422 276.443 117.78 284.33 114.707 290.56C113.107 293.817 110.855 297.102 110.119 300.713C109.524 303.587 110.119 306.731 112.073 308.657C113.078 309.648 111.294 311.305 110.303 310.639C107.839 308.982 107.018 305.697 107.443 302.568C107.938 298.929 109.595 295.743 111.492 292.684Z" fill="#CD0E0E"/>
<path d="M189.089 268.017C192.488 269.66 194.923 272.534 196.75 276.018C197.699 277.83 198.477 279.756 198.959 281.781C199.001 281.654 199.03 281.54 199.072 281.413C200.63 276.627 203.264 272.421 206.124 268.414C206.223 268.272 206.506 268.343 206.407 268.541C204.354 272.733 203.051 277.306 201.777 281.781C200.446 286.383 199.766 291.113 198.661 295.757C198.477 296.564 197.203 296.961 197.076 295.955C196.792 293.633 196.891 291.254 197.245 288.889C197.005 288.776 196.806 288.578 196.722 288.224C195.844 284.712 195.178 281.101 193.776 277.802C192.374 274.531 190.463 271.515 188.565 268.598C188.325 268.244 188.764 267.876 189.089 268.017Z" fill="#CD0E0E"/>
<path d="M136.371 291.467C138.863 287.36 142.234 284.089 146.255 281.923C146.425 281.838 146.595 282.064 146.411 282.192C140.322 286.68 135.536 294.058 134.318 301.945C133.129 309.606 135.323 317.394 139.826 322.987C141.016 324.46 142.361 325.847 143.834 326.994L143.848 327.008C144.896 328.255 146.014 329.402 147.246 330.435C147.855 331.129 148.506 331.766 149.229 332.319C148.776 333.041 147.898 333.579 147.105 333.366C143.465 332.403 140.138 329.529 137.731 326.513C135.267 323.426 133.412 319.716 132.378 315.723C130.297 307.666 132.024 298.66 136.371 291.467Z" fill="#CD0E0E"/>
<path d="M162.808 148.152C163.884 146.254 164.762 144.555 166.419 143.153C168.076 141.766 169.987 140.859 172.012 140.42C175.864 139.571 180.65 140.052 183.298 143.309C184.317 144.569 182.491 146.07 181.372 145.476C178.469 143.932 175.538 142.814 172.182 143.422C170.582 143.706 168.982 144.215 167.481 144.952C165.909 145.73 164.082 146.75 162.992 148.279C162.907 148.407 162.723 148.308 162.808 148.152Z" fill="#CD0E0E"/>
<path d="M145.292 160.032C145.59 159.806 145.986 160.061 145.76 160.443C144.089 163.36 142.701 166.489 142.092 169.831C141.498 173.145 141.71 176.67 142.602 179.814C142.928 180.975 141.299 181.91 140.775 180.791C137.745 174.292 139.374 164.507 145.292 160.032Z" fill="#CD0E0E"/>
<path d="M244.187 117.099C244.371 115.881 244.47 114.663 244.47 113.431C244.909 114.337 245.32 115.258 245.688 116.207C249.653 126.487 248.208 138.367 242.006 147.415C242.969 143.493 243.663 139.514 244.102 135.479C244.753 129.418 244.852 123.159 244.187 117.099ZM159.368 118.925C160.373 120.341 162.639 120.738 164.196 121.078C165.938 121.46 167.68 121.644 169.464 121.502C171.22 121.375 173.004 121.106 174.703 120.497C176.02 120.03 178.102 119.435 178.965 118.118C178.994 118.076 178.98 117.991 178.923 117.977C178.314 117.849 177.663 118.09 177.04 118.189C176.247 118.331 175.454 118.529 174.647 118.628C173.046 118.826 171.475 118.939 169.889 118.855C168.402 118.755 166.887 118.571 165.442 118.246C166.235 116.674 166.802 114.989 167.637 113.431C168.416 111.959 169.337 110.543 170.314 109.211C173.91 104.312 178.626 100.404 183.936 98.1383C189.302 95.8302 195.349 95.1222 200.942 95.6603C200.772 95.901 200.602 96.1417 200.404 96.3683C200.291 96.4815 200.475 96.5948 200.574 96.5099C201.168 96.0284 201.976 95.6886 202.627 95.3063C203.208 94.9806 203.788 94.6832 204.383 94.4142C205.586 93.8902 206.833 93.4371 208.079 93.1256C210.557 92.5167 213.105 92.3468 215.541 92.9132C218.061 93.5079 220.469 94.7115 222.479 96.4391C224.434 98.0958 226.019 100.361 227.45 102.556C228.186 103.689 229.772 102.287 229.475 101.14C228.752 98.4356 227.223 96.1134 225.255 94.2867C225.765 94.3434 226.26 94.4142 226.77 94.5274C228.271 94.8814 229.744 95.3771 231.117 96.0851C233.878 97.5011 236.385 99.5401 238.325 102.103C238.735 102.627 239.103 103.179 239.457 103.76C238.877 103.25 238.268 102.783 237.617 102.4C236.88 101.976 236.087 101.579 235.294 101.338C234.926 101.225 234.53 101.14 234.133 101.169C233.85 101.197 233.581 101.381 233.326 101.381C233.085 101.381 232.788 101.806 233.085 101.976C233.269 102.075 233.326 102.301 233.496 102.485C233.723 102.74 234.048 102.896 234.331 103.066C234.983 103.462 235.634 103.873 236.215 104.397C237.277 105.346 238.197 106.535 238.934 107.81C239.443 108.702 239.896 109.636 240.25 110.628C240.902 114.975 241.412 119.364 241.553 123.796C241.822 132.859 240.661 141.893 238.495 150.771C237.418 155.204 236.002 159.551 234.275 163.756C232.533 167.976 230.381 171.955 228.455 176.076C228.313 176.387 228.71 176.458 228.866 176.274C232.236 172.252 234.714 167.381 236.866 162.524C238.834 158.064 240.434 153.462 241.666 148.761C243.861 146.141 245.688 143.224 247.033 140.081C249.37 134.601 250.276 128.54 249.483 122.635C249.1 119.832 248.392 117.085 247.359 114.465C246.849 113.162 246.268 111.902 245.589 110.684C245.037 109.679 244.456 108.546 243.691 107.654C242.955 104.949 241.766 102.4 240.236 100.177C238.169 97.1754 235.408 94.8531 232.264 93.338C229.149 91.837 225.453 90.8033 221.941 91.3273C221.715 91.3697 221.517 91.4547 221.361 91.568C219.662 90.7042 217.863 90.1236 216.079 89.8829C213.19 89.4723 210.188 89.8263 207.385 90.9449C205.983 91.5113 204.68 92.2193 203.462 93.1681C202.854 93.6495 202.259 94.1593 201.707 94.7115C201.48 94.9381 201.282 95.193 201.098 95.4479C201.084 95.4479 201.084 95.4337 201.069 95.4337C197.841 94.2159 194.499 93.7062 191.016 93.9752C184.785 94.4708 178.668 97.1612 173.57 101.381C171.05 103.448 168.813 105.983 166.929 108.744C165.216 111.251 163.389 114.238 162.54 117.254C161.86 117.028 161.194 116.844 160.515 116.872C159.58 116.886 158.716 118.033 159.368 118.925Z" fill="#CD0E0E"/>
<path d="M214.139 99.2854C216.844 100.234 218.953 101.948 220.086 104.864C220.638 106.309 220.879 107.796 220.794 109.382C220.709 110.854 220.426 112.964 219.109 113.743C218.713 113.969 218.019 113.899 217.863 113.375C217.537 112.242 218.344 110.854 218.486 109.665C218.628 108.419 218.529 107.088 218.288 105.884C217.792 103.335 216.277 100.531 214.026 99.5403C213.87 99.4695 213.983 99.2288 214.139 99.2854Z" fill="#CD0E0E"/>
<path d="M209.494 245.517C210.23 243.959 211.122 242.458 211.901 240.901C212.623 239.456 213.317 237.984 213.968 236.497C215.342 233.424 216.574 230.281 217.664 227.109C218.783 223.895 219.732 220.638 220.581 217.338C221.431 214.053 222.068 210.726 223.045 207.483C223.102 207.299 223.47 207.2 223.484 207.455C223.541 210.825 222.932 214.181 222.238 217.452C221.516 220.85 220.595 224.178 219.533 227.477C218.471 230.748 217.268 233.962 215.894 237.12C214.535 240.249 213.133 243.506 211.292 246.381C210.697 247.301 208.984 246.636 209.494 245.517Z" fill="#CD0E0E"/>
<path d="M146.482 335.306C151.212 344.199 161.633 348.942 171.418 346.648C176.218 345.53 180.509 342.825 183.652 339.044C187.32 334.627 189.43 329.118 191.285 323.752C192.446 320.381 193.48 316.969 194.414 313.542C194.896 311.815 195.32 310.073 195.745 308.345C196.156 306.646 196.496 304.904 197.09 303.262C197.119 303.177 197.289 303.163 197.289 303.276C197.317 304.876 197.005 306.49 196.75 308.076C196.481 309.719 196.142 311.347 195.802 312.976C195.094 316.275 194.258 319.546 193.31 322.803C191.596 328.637 189.642 334.57 186.003 339.526C179.588 348.263 167.581 352.058 157.385 348.22C151.622 346.068 146.794 341.848 143.891 336.425C143.14 334.995 145.732 333.876 146.482 335.306Z" fill="#CD0E0E"/>
<path d="M227.761 189.514C233.949 179.871 238.197 169.166 240.023 157.823C240.533 154.609 240.83 151.366 241.114 148.124C241.142 147.826 241.722 147.756 241.737 148.095C242.034 153.859 241.227 159.721 239.967 165.342C238.692 171.035 236.738 176.586 234.246 181.839C232.816 184.855 231.216 187.786 229.389 190.576C228.695 191.624 227.038 190.661 227.761 189.514Z" fill="#CD0E0E"/>
<path d="M154.241 263.047C154.737 261.829 155.572 260.64 156.309 259.564C157.087 258.403 157.965 257.326 158.942 256.335C159.877 255.372 160.882 254.494 162.001 253.73C163.077 252.979 164.267 252.441 165.428 251.818C165.442 251.804 165.456 251.832 165.442 251.846C163.289 253.121 161.307 255.089 159.664 256.972C158.843 257.907 158.064 258.884 157.385 259.932C156.634 261.065 156.167 262.268 155.544 263.472C155.162 264.194 153.887 263.911 154.241 263.047Z" fill="#CD0E0E"/>
<path d="M102.09 203.065C102.841 200.898 103.804 198.803 104.965 196.806C107.245 192.912 110.19 189.386 113.758 186.597C114.764 185.804 115.811 185.053 116.902 184.374C118.006 183.694 119.167 182.972 120.428 182.646C121.206 182.448 121.518 183.439 120.952 183.892C119.861 184.756 118.53 185.351 117.355 186.115C116.236 186.837 115.16 187.63 114.141 188.466C111.96 190.25 109.949 192.232 108.179 194.427C106.423 196.608 104.908 198.987 103.662 201.493C102.416 204.014 101.283 206.817 100.688 209.579C100.674 209.635 100.575 209.635 100.589 209.579C100.957 207.341 101.34 205.217 102.09 203.065Z" fill="#CD0E0E"/>
<path d="M235.181 175.708C232.32 181.683 229.432 187.956 224.306 192.374C219.718 196.339 213.969 198.293 207.951 197.273C207.498 197.203 207.37 197.826 207.767 198.01C213.077 200.516 219.562 199.015 224.391 195.928C224.334 197.5 224.348 199.086 224.278 200.658C224.164 202.98 224.023 205.316 223.768 207.624C223.216 212.439 222.323 217.211 220.978 221.87C218.274 231.144 213.983 240.009 208.22 247.768C204.935 252.186 201.211 256.349 197.302 260.229C196.354 261.178 197.968 263.09 199.058 262.254C204.071 258.431 208.333 253.801 211.944 248.689C211.024 251.988 210.245 255.344 209.367 258.629C208.064 263.557 206.676 268.47 205.204 273.356C203.731 278.17 202.145 282.942 200.418 287.657C198.662 292.486 196.679 297.216 195.023 302.072C194.796 302.738 195.108 303.375 195.589 303.743C195.023 304.919 194.386 306.051 193.692 307.142C192.049 309.705 189.982 312.013 187.674 313.981C186.81 314.717 187.886 316.36 188.806 315.638C191.426 313.599 193.578 311.149 195.263 308.289C196.056 306.958 196.708 305.57 197.232 304.126C197.416 303.644 197.614 303.092 197.798 302.54C199.993 298.164 201.706 293.591 203.377 288.988C205.091 284.259 206.676 279.487 208.121 274.658C209.565 269.872 210.84 265.058 211.93 260.173C213.02 255.245 214.082 250.091 214.351 245.035C215.597 243.039 216.758 240.986 217.835 238.89C222.451 229.912 225.311 220 226.161 209.947C226.402 207.228 226.501 204.453 226.359 201.734C226.232 199.525 226.09 197.273 225.594 195.107C231.527 190.76 235.237 183.85 237.687 177.067C238.254 175.538 235.974 174.037 235.181 175.708Z" fill="#CD0E0E"/>
<path d="M172.295 216.446C163.077 216.205 155.232 209.465 152.754 200.743C150.021 191.156 153.505 180.833 159.466 173.215C163.006 168.698 167.495 164.733 172.224 161.505C172.437 161.349 172.196 161.023 171.97 161.137C162.27 166.234 153.802 174.093 150.559 184.855C147.557 194.852 149.554 206.152 157.597 213.232C161.689 216.843 167.07 219.052 172.564 218.613C173.966 218.499 173.541 216.489 172.295 216.446Z" fill="#CD0E0E"/>
<path d="M242.671 121.772C236.072 122.819 232.929 129.857 231.329 135.549C230.239 139.387 229.403 143.309 227.435 146.835C225.693 149.964 223.286 152.697 220.567 155.005C209.522 164.351 194.187 166.56 183.397 176.26C177.973 181.117 173.91 187.97 174.023 195.418C174.023 195.517 174.207 195.546 174.207 195.433C174.858 180.352 190.392 172.649 202.357 167.282C208.559 164.507 214.832 161.675 220.213 157.441C222.762 155.458 225.113 153.193 227.01 150.559C229.092 147.656 230.338 144.428 231.329 141.001C233.283 134.261 235.279 125.269 243.379 123.669C244.583 123.442 243.776 121.602 242.671 121.772Z" fill="#CD0E0E"/>
<path d="M237.701 103.42C233.269 100.843 227.52 103.987 224.546 107.413C220.496 112.058 219.604 118.529 217.579 124.151C213.912 134.374 206.804 143.054 197.925 149.214C192.913 152.697 187.277 155.374 181.386 156.974C181.273 157.002 181.344 157.158 181.443 157.129C191.652 155.232 200.828 150.106 208.021 142.629C211.632 138.891 214.677 134.601 217.013 129.942C219.633 124.731 220.695 118.996 223.059 113.686C224.376 110.727 226.245 108.065 229.063 106.337C231.683 104.723 234.288 104.567 237.22 105.275C238.423 105.572 238.579 103.93 237.701 103.42Z" fill="#CD0E0E"/>
<path d="M186.215 186.328C184.714 182.179 186.087 177.959 188.962 174.759C189.528 174.122 188.58 173.003 187.857 173.484C183.765 176.302 183.156 182.519 185.932 186.455C186.045 186.611 186.286 186.512 186.215 186.328Z" fill="#CD0E0E"/>
<path d="M191.865 202.258C188.651 204.084 185.819 206.35 183.213 208.97C181.925 210.258 180.665 211.603 179.532 213.048C178.427 214.45 177.238 215.965 176.742 217.692C176.657 217.961 176.955 218.386 177.252 218.16C178.541 217.154 179.461 215.767 180.523 214.52C181.698 213.133 182.902 211.745 184.205 210.456C186.796 207.879 189.699 205.571 192.63 203.405C193.281 202.923 192.545 201.861 191.865 202.258Z" fill="#CD0E0E"/>
<path d="M183.78 233.976C178.257 229.332 169.676 227.534 162.709 229.219C162.653 229.233 162.681 229.304 162.724 229.304C166.334 229.332 169.931 229.728 173.358 230.861C176.785 231.966 179.758 233.821 182.718 235.803C183.865 236.554 184.714 234.769 183.78 233.976Z" fill="#CD0E0E"/>
<path d="M138.028 220.227C136.796 219.151 135.479 218.4 134.488 217.055C133.525 215.724 132.789 214.209 132.505 212.58C131.84 208.771 133.468 205.529 135.72 202.569C135.762 202.513 135.691 202.442 135.635 202.47C132.066 204.325 130.381 208.941 130.792 212.793C131.188 216.361 133.652 220.864 137.306 221.969C138.382 222.294 138.722 220.822 138.028 220.227Z" fill="#CD0E0E"/>
<path d="M156.55 162.51C151.962 162.808 147.699 165.909 145.037 169.477C143.352 171.728 142.092 174.306 141.427 177.024C141.2 176.614 140.959 176.203 140.704 175.807C140.025 174.787 138.779 175.722 139.331 176.741C139.996 177.973 140.534 179.276 140.945 180.593C140.917 181.301 140.931 182.009 141.002 182.717C141.03 183.042 141.285 183.311 141.582 183.439C141.851 185.209 141.88 187.007 141.639 188.82C141.37 190.83 140.846 192.813 140.039 194.668C139.628 195.602 139.133 196.48 138.623 197.358C138.113 198.279 137.66 199.256 137.136 200.162C137.122 200.19 137.179 200.247 137.207 200.219C138.241 199.61 138.991 199.128 139.784 198.18C140.478 197.372 141.016 196.41 141.512 195.461C142.559 193.422 143.239 191.227 143.508 188.933C143.862 186.059 143.65 183.057 142.8 180.281C143.239 176.798 144.443 173.484 146.553 170.61C147.855 168.826 149.399 167.353 151.07 165.937C152.769 164.521 154.638 163.615 156.578 162.624C156.635 162.595 156.592 162.51 156.55 162.51Z" fill="#CD0E0E"/>
<path d="M232.787 165.725C228.129 168.146 223.229 170.114 218.018 170.95C216.036 171.261 212.637 172.054 211.037 170.369C208.729 167.92 212.722 164.649 214.549 163.487C214.62 163.445 214.535 163.346 214.464 163.374C212.071 164.578 209.126 165.994 209.324 169.194C209.508 172.111 212.411 173.173 214.917 173.258C218.132 173.371 221.502 172.663 224.574 171.785C227.916 170.851 231.116 169.449 234.005 167.509C235.053 166.801 233.863 165.158 232.787 165.725Z" fill="#CD0E0E"/>
<path d="M221.544 180.55C214.918 184.402 206.903 181.768 199.851 183.977C196.906 184.897 194.116 186.667 192.587 189.414C191.114 192.077 191.157 195.418 192.545 198.109C194.13 201.182 197.472 203.249 200.956 202.895C201.947 202.796 201.621 201.465 200.772 201.394C196.906 201.068 193.465 198.505 193.153 194.441C192.842 190.335 195.901 187.234 199.497 185.818C206.648 182.972 215.215 185.733 221.658 180.72C221.743 180.649 221.644 180.494 221.544 180.55Z" fill="#CD0E0E"/>
<path d="M312.014 157.951C312.41 155.034 312.269 152.088 311.589 149.313C310.23 143.748 306.633 139.557 301.72 137.56C298.93 136.413 296.056 135.847 292.997 136.3C292.983 136.314 292.983 136.342 292.997 136.342C296.211 136.356 299.44 137.149 302.102 138.976C304.637 140.704 306.647 143.139 308.134 145.971C309.564 148.704 310.187 151.904 310.131 155.133C310.102 156.719 309.876 158.319 309.493 159.876C309.069 161.576 308.29 163.105 307.723 164.747C307.398 165.682 308.46 166.956 309.21 165.965C310.881 163.813 311.66 160.627 312.014 157.951Z" fill="#CD0E0E"/>
<path d="M342.855 237.644C344.03 233.707 344.582 229.601 344.483 225.551C344.384 221.445 343.577 217.423 342.076 213.756C340.646 210.286 338.578 207.015 335.506 205.189C337.46 202.881 338.748 199.808 339.612 196.905C340.561 193.762 341 190.491 340.915 187.262C340.731 180.848 338.338 174.886 334.415 170.383C332.235 167.891 329.643 165.413 326.542 164.337C324.886 163.77 324.347 166.574 325.664 167.311C327.123 168.132 328.638 168.868 330.054 169.789C331.484 170.695 332.688 171.913 333.792 173.244C335.945 175.821 337.559 178.964 338.479 182.349C339.47 186.03 339.598 190.023 338.947 193.903C338.281 197.882 336.681 201.309 334.939 204.877C334.812 204.807 334.67 204.722 334.529 204.665C331.286 203.164 327.151 203.419 324.206 205.968C321.374 204.962 317.876 204.056 316.05 201.351C314.421 198.93 314.676 195.772 315.327 192.87C316.659 186.965 319.717 181.088 317.621 175.155C315.186 168.231 308.488 165.979 302.371 164.337C298.491 163.303 294.583 162.496 291.213 160.145C288.338 158.135 286.129 155.034 285.974 151.125C285.959 151.055 285.832 151.012 285.832 151.111C285.336 157.568 290.179 162.383 295.093 164.592C298.633 166.192 302.428 166.999 306.081 168.273C308.998 169.307 311.731 170.851 313.982 173.088C316.12 175.212 317.211 178.03 316.942 181.329C316.701 184.473 315.568 187.559 314.619 190.561C313.77 193.266 312.991 196.155 313.388 198.944C313.841 202.088 315.667 204.452 318.075 206.024C322.818 209.125 331.852 209.437 331.413 217.579C331.357 218.542 332.744 219.094 333.169 218.089C334.359 215.285 333.084 212.382 331.385 210.4C329.629 208.347 327.321 207.129 324.9 206.208C327.746 205.132 330.875 204.835 333.537 206.166C336.709 207.738 338.649 211.377 339.924 214.775C342.359 221.261 342.515 228.765 340.589 235.732C340.065 237.63 339.357 239.47 338.522 241.255C338.097 242.161 337.615 243.053 337.106 243.917C336.553 244.837 335.874 245.715 335.562 246.763C335.237 247.811 336.1 249.213 337.177 248.476C338.72 247.443 339.725 245.191 340.561 243.506C341.495 241.623 342.26 239.669 342.855 237.644Z" fill="#CD0E0E"/>
<path d="M329.742 194.866C328.468 193.464 326.896 192.586 325.112 192.232C326.018 191.397 326.853 190.462 327.59 189.443C328.567 188.112 329.388 186.625 329.997 185.067C330.294 184.289 330.521 183.51 330.676 182.688C330.846 181.811 330.719 181.159 330.761 180.281C330.761 180.239 330.691 180.225 330.676 180.281C330.549 180.777 330.252 181.23 330.053 181.697C329.926 181.995 329.841 182.306 329.714 182.604C329.43 183.312 329.133 184.034 328.793 184.713C328.142 186.044 327.306 187.276 326.358 188.381C325.409 189.485 324.347 190.434 323.172 191.241C322.605 191.624 322.011 191.992 321.387 192.275C320.934 192.388 320.481 192.53 320.056 192.728C319.759 192.813 319.462 192.912 319.164 193.054C318.824 193.238 318.598 193.493 318.499 193.79C318.4 193.889 318.301 193.988 318.216 194.087C317.564 194.824 318.371 196.452 319.292 195.999C319.617 195.829 319.943 195.659 320.269 195.489C320.722 195.333 321.161 195.064 321.586 194.795C322.464 194.356 323.356 194.002 324.347 193.889C326.188 193.663 328.071 194.102 329.572 195.149C329.742 195.263 329.855 194.994 329.742 194.866Z" fill="#CD0E0E"/>
<path d="M334.132 226.599C334.075 226.245 333.849 225.99 333.565 225.849C333.707 225.41 333.792 224.942 333.792 224.503C333.806 223.64 332.886 223.271 332.319 223.824C331.555 224.574 331.215 225.792 330.634 226.712C330.04 227.647 329.346 228.567 328.595 229.389C327.023 231.116 325.225 232.66 323.115 233.438C322.931 233.509 323.044 233.792 323.2 233.75C325.565 233.325 327.916 232.49 329.856 230.819C330.493 230.266 331.229 229.544 331.88 228.737C331.739 230.451 331.541 232.121 330.932 233.792C330.082 236.086 328.779 238.182 327.108 239.881C325.622 241.396 323.809 242.6 321.926 243.365C319.986 244.158 317.989 244.37 315.993 244.766C315.54 244.851 315.738 245.545 316.035 245.644C320.17 246.933 325.31 244.497 328.524 241.368C332.149 237.856 334.981 231.753 334.132 226.599Z" fill="#CD0E0E"/>
<path d="M331.838 286.256C334.387 283.409 335.633 279.515 336.525 275.834C338.295 268.584 338.705 261.051 337.728 253.829C337.459 251.846 337.105 249.892 336.596 247.981C336.086 246.041 335.392 244.299 334.599 242.487C334.528 242.331 334.344 242.444 334.372 242.6C334.925 245.8 335.307 249.085 335.604 252.328C335.902 255.613 335.902 258.926 335.746 262.254C335.604 265.525 335.18 268.796 334.5 272.025C333.806 275.366 332.985 278.921 331.229 281.894C330.365 283.339 329.261 284.585 327.901 285.491C326.839 286.199 325.82 286.355 324.744 286.581C324.857 285.236 325.211 283.891 325.933 282.588C326.16 282.192 325.65 281.583 325.282 281.894C321.742 284.882 322.549 290.489 322.945 294.511C323.356 298.688 323.044 302.809 321.6 306.887C320.212 310.767 318.018 314.462 315.086 317.238C312.014 320.141 308.502 321.599 304.764 322.987C301.832 324.077 298.831 325.309 296.607 327.617C296.891 325.946 297.089 324.275 297.202 322.576C297.216 322.435 297.004 322.251 296.933 322.463C295.843 325.989 294.37 329.401 292.784 332.715C291.142 336.156 289.357 339.413 287.134 342.471C283.382 347.625 278.27 352.497 272.195 353.346C269.576 353.7 266.914 353.29 264.606 352.114C265.682 350.061 266.319 347.951 267.069 345.785C267.112 345.657 266.956 345.53 266.899 345.671C265.993 347.625 264.634 349.509 263.161 351.236C263.105 351.18 263.034 351.137 262.977 351.095C261.575 350.061 260.315 352.242 261.066 353.53C260.796 353.799 260.542 354.068 260.301 354.323C257.837 356.801 255.076 358.939 252.017 360.398C245.518 363.513 238.367 363.811 232.037 361.092C228.483 359.562 225.34 357.056 222.777 354.04C222.21 353.374 221.106 353.346 220.511 354.097C219.831 354.946 220.143 355.994 220.667 356.716C225.396 363.102 233.099 366.586 240.802 366.614C248.236 366.643 255.373 363.145 260.839 357.325C261.504 356.603 262.142 355.853 262.751 355.045C267.777 358.585 274.631 357.594 280.012 354.111C286.242 350.089 290.958 343.165 294.059 336.198C294.554 335.108 294.965 334.003 295.333 332.885C295.729 333.069 296.183 332.998 296.508 332.474C298.632 329.062 302.314 327.546 305.684 326.23C309.394 324.785 312.962 323.284 316.078 320.481C322.195 314.944 326.287 306.646 326.032 298.15C325.947 295.474 325.168 292.713 324.843 289.98C327.335 290.178 330.181 288.111 331.838 286.256Z" fill="#CD0E0E"/>
<path d="M227.421 351.746C224.745 352.667 222.012 353.474 219.237 353.417C216.56 353.375 214.04 352.582 211.746 351.208C209.594 349.92 207.654 347.994 206.266 345.785C205.516 344.595 204.921 343.321 204.425 341.976C204.269 341.508 204.128 341.013 204 340.517C208.149 342.146 213.049 342.046 217.014 339.611C218.43 338.733 217.254 336.142 215.81 336.68C213.091 337.671 210.33 338.322 207.526 337.983C204.921 337.657 202.443 336.623 200.418 334.924C196.184 331.384 194.187 325.083 195.179 319.178C195.207 318.923 194.895 318.796 194.811 319.065C192.885 325.578 194.471 332.729 198.846 337.161C199.937 338.252 201.211 339.172 202.599 339.88C202.599 340.772 202.769 341.692 202.896 342.471C203.179 344.1 203.731 345.657 204.383 347.116C205.728 350.075 207.725 352.497 210.259 354.267C215.229 357.75 223.187 358.373 228.526 354.422C229.729 353.53 228.781 351.293 227.421 351.746Z" fill="#CD0E0E"/>
<path d="M226.217 239.91C229.333 236.61 232.802 233.552 236.413 230.946C236.597 230.805 236.413 230.521 236.229 230.606C231.811 232.844 227.747 235.86 224.122 239.442C224.348 238.621 224.575 237.814 224.773 237.021C225.495 234.161 226.005 231.258 226.402 228.341C227.194 222.62 227.633 216.871 228.412 211.15C229.842 200.757 232.434 189.953 239.811 182.25C243.28 178.639 247.684 175.92 252.357 175.212C252.824 175.141 252.753 174.376 252.315 174.405C243.875 174.929 236.682 181.457 232.32 189.259C226.444 199.766 225.538 212.085 223.867 223.725C223.4 227.066 222.819 230.408 222.125 233.736C221.771 235.378 221.389 237.035 220.964 238.678C220.525 240.377 219.902 242.048 219.576 243.775C219.548 243.988 219.562 244.214 219.633 244.427C213.827 251.691 209.565 260.484 207.37 269.547C206.252 274.163 205.416 279.204 205.699 283.919C205.756 284.769 206.606 285.364 207.299 285.307C199.327 292.939 194.244 305.145 195.986 316.162C196.014 316.275 196.184 316.36 196.212 316.19C197.133 310.455 198.563 304.749 201.14 299.509C203.731 294.256 207.215 289.498 211.406 285.618C212.666 284.457 211.378 281.923 209.947 283.027C209.339 283.494 208.73 284.004 208.149 284.528C208.163 284.443 208.177 284.358 208.177 284.259C208.475 280.181 208.701 276.188 209.551 272.152C210.372 268.145 211.604 264.222 213.148 260.428C216.249 252.838 220.709 245.758 226.217 239.91Z" fill="#CD0E0E"/>
<path d="M304.523 201.536C304.75 199.95 304.849 198.336 304.792 196.764C304.693 193.634 304.056 190.576 302.895 187.786C301.748 185.025 299.992 182.533 297.911 180.565C297.358 180.041 296.792 179.573 296.197 179.134C298.038 179.559 299.907 179.942 301.762 180.225C303.192 180.451 303.362 178.356 302.173 177.931C294.569 175.141 286.469 173.938 278.823 171.247C272.309 168.939 266.857 164.719 263.501 158.192C261.717 154.722 260.485 151.012 260.061 146.977C260.046 146.906 259.947 146.892 259.947 146.977C260.046 154.227 262.482 160.882 266.9 166.022C272.252 172.267 279.828 174.816 287.361 176.855C288.749 177.223 290.122 177.605 291.524 177.973C291.694 178.143 291.878 178.313 292.077 178.469C292.586 178.837 293.082 179.205 293.592 179.588C294.654 180.366 295.645 181.287 296.579 182.25C298.364 184.119 299.78 186.356 300.785 188.848C301.776 191.326 302.314 194.017 302.385 196.778C302.413 198.137 302.329 199.497 302.13 200.842C301.918 202.23 301.266 203.773 301.578 205.118C301.72 205.713 302.513 206.265 303.065 205.798C304.169 204.863 304.325 202.923 304.523 201.536Z" fill="#CD0E0E"/>
<path d="M279.417 125.453C274.815 120.639 268.188 119.294 261.873 121.758C258.417 123.089 255.175 125.298 252.966 128.597C252.314 129.574 253.447 130.962 254.311 130.013C258.502 125.411 263.94 123.117 269.646 123.669C275.296 124.207 279.658 128.115 281.937 133.525C283.24 136.583 283.849 140.152 283.651 143.607C283.651 143.663 283.736 143.692 283.764 143.635C285.874 136.966 283.736 129.999 279.417 125.453Z" fill="#CD0E0E"/>
<path d="M302.951 145.518C303.064 144.853 302.541 144.272 301.932 144.414C301.139 144.598 300.487 145.561 299.793 146.042C299.015 146.58 298.151 146.934 297.273 147.161C295.404 147.6 293.506 147.501 291.85 146.623C291.68 146.524 291.552 146.764 291.68 146.906C293.138 148.449 295.248 149.271 297.372 149.016C297.004 149.71 296.707 150.446 296.466 151.225C295.999 152.726 295.673 154.751 296.466 156.096C296.522 156.181 296.622 156.181 296.664 156.096C297.33 154.892 297.5 153.349 298.038 152.06C298.646 150.616 299.595 149.426 300.53 148.223C300.601 148.124 300.657 148.025 300.686 147.911C301.592 147.402 302.767 146.637 302.951 145.518Z" fill="#CD0E0E"/>
<path d="M304.325 138.778C303.857 137.787 302.909 137.008 302.286 136.13C301.648 135.209 301.04 134.232 300.501 133.241C299.397 131.202 298.406 128.937 297.882 126.6C297.882 126.586 297.854 126.586 297.854 126.614C298.151 129.121 298.604 131.429 299.567 133.694C300.062 134.87 300.643 135.974 301.337 137.008C301.946 137.928 302.64 139.174 303.588 139.698C304.169 140.024 304.58 139.316 304.325 138.778Z" fill="#CD0E0E"/>
<path d="M302.795 222.804C302.286 219.321 302.187 215.724 302.569 212.17C302.767 210.428 302.937 208.686 303.249 206.945C303.56 205.118 304.056 203.348 304.282 201.521C304.353 201.012 304.084 200.573 303.73 200.389C303.73 200.374 303.73 200.374 303.73 200.374C303.942 199.468 302.682 198.732 302.243 199.709C300.473 203.688 298.59 207.639 295.73 210.881C292.855 214.138 289.301 216.885 285.548 218.698C285.421 218.754 285.492 218.953 285.605 218.924C289.796 217.749 293.521 215.469 296.721 212.184C298.293 210.57 299.751 208.8 300.969 206.86C300.714 208.531 300.558 210.23 300.601 211.901C300.7 215.682 301.379 219.363 302.569 222.832C302.611 222.96 302.824 222.96 302.795 222.804Z" fill="#CD0E0E"/>
<path d="M258.304 227.732C257.37 221.501 253.504 216.333 248.152 214.124C245.192 212.892 241.836 212.779 238.65 213.543C235.563 214.28 232.037 215.993 230.012 218.825C229.389 219.689 230.296 221.19 231.23 220.496C233.567 218.754 235.719 217.112 238.452 216.291C241.029 215.512 243.748 215.441 246.268 216.163C251.338 217.622 255.302 222.436 256.294 228.072C257.455 234.642 254.297 241.453 250.276 246.537C245.999 251.932 240.448 255.726 235.124 259.72C232.165 261.929 229.219 264.166 226.472 266.686C225.155 267.904 223.909 269.15 222.762 270.552C221.516 272.067 220.511 273.724 219.406 275.352C219.336 275.437 219.463 275.579 219.534 275.48C221.573 272.492 224.589 270.028 227.294 267.777C230.041 265.497 232.972 263.486 235.903 261.49C241.779 257.511 247.868 253.263 252.371 247.372C256.52 241.92 259.324 234.614 258.304 227.732Z" fill="#CD0E0E"/>
<path d="M238.141 237.361C236.909 236.993 235.649 236.525 234.374 236.327C233.142 236.129 231.797 236.228 230.537 236.426C227.86 236.865 225.354 237.913 223.287 239.98C222.508 240.745 223.612 242.005 224.434 241.538C226.544 240.349 228.668 239.145 230.933 238.423C233.199 237.686 235.833 237.106 238.112 237.488C238.197 237.502 238.197 237.389 238.141 237.361Z" fill="#CD0E0E"/>
<path d="M240.179 320.651C242.402 313.457 240.646 305.428 234.855 301.506C231.81 299.453 227.973 298.773 224.433 300.331C223.3 300.826 223.881 302.681 224.999 302.37C230.635 300.812 236.526 304.069 238.296 309.903C240.179 316.105 237.772 323.001 233.665 327.901C232.433 329.373 231.032 330.662 229.516 331.766C228.016 332.885 226.415 334.216 224.73 334.924C224.631 334.966 224.688 335.108 224.773 335.08C226.458 334.485 228.129 334.131 229.743 333.239C231.371 332.347 232.901 331.2 234.303 329.911C237.007 327.405 239.06 324.29 240.179 320.651Z" fill="#CD0E0E"/>
<path d="M229.502 312.622C229.729 311.8 228.709 311.163 228.157 311.786C227.279 312.763 226.599 313.925 225.764 314.944C224.9 315.992 224.036 317.026 223.059 317.932C221.516 319.348 219.774 320.622 217.948 321.557C218.528 320.651 218.995 319.674 219.349 318.725C219.831 317.479 220.171 316.162 220.142 314.831C220.128 313.486 219.817 312.126 219.548 310.838C219.533 310.753 219.406 310.767 219.406 310.852C219.661 313.16 218.684 315.808 217.735 317.932C216.786 320.042 215.328 321.458 213.855 323.086C209.451 324.176 204.595 323.808 200.757 321.812C200.644 321.741 200.573 321.939 200.672 322.01C203.094 323.582 205.727 324.771 208.588 325.182C210.358 325.437 212.227 325.352 214.054 325.026C214.138 325.026 214.238 325.012 214.323 324.969C214.337 324.969 214.337 324.969 214.337 324.969C215.271 324.785 216.192 324.53 217.084 324.219C219.788 323.27 222.281 321.84 224.49 319.815C226.543 317.918 228.723 315.468 229.502 312.622Z" fill="#CD0E0E"/>
<path d="M246.056 175.75C245.49 174.872 244.598 174.32 243.932 173.513C243.266 172.72 242.7 171.785 242.204 170.837C241.185 168.882 240.534 166.504 240.576 164.167C240.576 164.096 240.477 164.068 240.463 164.153C240.137 166.631 240.165 168.996 240.859 171.346C241.199 172.522 241.695 173.612 242.332 174.631C242.927 175.609 243.705 176.954 244.739 177.421C245.674 177.86 246.722 176.755 246.056 175.75Z" fill="#CD0E0E"/>
<path d="M302.625 238.154C304.041 237.46 305.401 236.653 306.675 235.746C311.546 232.277 316.332 227.01 318.456 221.062C318.91 219.802 317.38 218.613 316.658 219.944C314.166 224.546 311.306 228.525 307.228 231.598C305.769 232.702 304.226 233.651 302.625 234.472C302.286 234.43 301.932 234.571 301.648 234.939C299.326 236.03 296.891 236.808 294.427 237.262C289.329 238.196 283.184 237.63 279.205 234.175C275.693 231.116 273.781 225.834 274.56 220.779C275.509 214.662 280.04 209.281 285.393 207.228C285.917 207.03 285.633 206.18 285.138 206.322C279.941 207.78 275.594 212.17 273.781 217.721C271.997 223.144 272.776 229.304 275.693 233.75C280.975 241.765 290.943 242.6 299.553 239.471C297.372 245.8 297.74 253.05 300.884 258.488C300.955 258.629 301.153 258.544 301.11 258.374C299.114 251.804 299.624 244.54 302.625 238.154Z" fill="#CD0E0E"/>
<path d="M300.105 299.24C301.238 292.529 299.269 285.902 295.135 281.186C292.968 278.708 290.193 276.797 286.992 276.259C286.893 276.244 286.865 276.386 286.936 276.443C291.538 279.147 295.404 283.098 296.989 288.705C298.561 294.242 297.471 300.43 294.795 305.669C293.223 308.742 291.014 311.291 288.451 313.429C287.97 313.84 288.324 314.916 288.947 314.618C294.526 311.956 299.014 305.712 300.105 299.24Z" fill="#CD0E0E"/>
<path d="M327.108 255.925C327.547 253.673 327.717 251.351 327.632 249.085C327.589 247.91 327.462 246.749 327.278 245.602C327.094 244.455 326.938 243.223 326.216 242.345C325.819 241.849 324.927 242.076 324.828 242.812C324.715 243.818 325.069 244.766 325.253 245.729C325.451 246.777 325.579 247.839 325.635 248.915C325.763 251.124 325.607 253.362 325.196 255.556C324.8 257.737 324.163 259.833 323.384 261.886C323.172 262.438 322.959 262.976 322.733 263.529C322.563 260.328 321.77 257.213 320.255 254.565C319.348 252.965 317.451 254.395 318.173 256.038C320.368 261.008 320.863 266.884 318.98 272.35C317.111 277.83 313.189 281.951 308.487 284.627C305.797 286.156 302.781 287.077 299.836 287.332C299.694 287.346 299.694 287.572 299.807 287.587C305.344 288.734 311.22 286.723 315.61 282.503C320.056 278.241 322.506 272.095 322.747 265.907C323.568 264.902 324.29 263.84 324.899 262.622C325.947 260.527 326.669 258.233 327.108 255.925Z" fill="#CD0E0E"/>
<path d="M287.134 292.217C280.663 292.599 274.475 296.437 270.623 302.384C268.712 305.343 267.352 308.714 266.828 312.225C266.191 316.601 266.885 320.948 267.31 325.224C267.834 330.378 267.961 336 265.299 340.758C264.803 341.664 266.035 342.754 266.729 341.933C272.563 334.896 269.094 325.791 268.443 317.833C268.471 317.762 268.485 317.677 268.499 317.578C268.797 314.363 269.859 311.347 271.898 308.869C273.894 306.462 276.542 304.324 279.445 303.757C279.516 303.743 279.488 303.588 279.417 303.588C276.202 303.899 273.229 305.159 270.878 307.779C270.17 308.586 269.519 309.464 268.952 310.413C270.156 305.358 273.016 300.727 276.896 297.343C279.842 294.794 283.481 292.882 287.148 292.373C287.247 292.359 287.233 292.203 287.134 292.217Z" fill="#CD0E0E"/>
<path d="M259.451 262.622C252.952 258.516 244.753 263.146 239.585 268.456C233.567 274.63 228.568 282.333 224.447 290.05C222.422 293.817 220.695 297.612 219.364 301.648C219.109 301.506 218.812 301.52 218.557 301.832C216.475 304.437 214.082 306.646 211.448 308.543C210.174 309.45 208.843 310.2 207.512 310.965C206.039 311.8 204.694 312.777 203.122 313.372C203.08 313.386 203.108 313.443 203.136 313.429C204.751 313.061 206.464 312.876 208.022 312.225C209.466 311.616 210.882 310.767 212.213 309.889C214.564 308.345 216.73 306.377 218.656 304.196C218.656 304.196 218.656 304.196 218.656 304.182C219.01 303.8 219.336 303.403 219.661 303.007C219.902 302.724 219.888 302.37 219.76 302.086C223.357 295.219 226.911 288.337 231.372 282.036C233.722 278.694 236.243 275.465 238.962 272.478C241.539 269.646 244.441 266.984 247.797 265.412C251.437 263.698 255.203 263.528 258.757 264.959C260.06 265.483 260.428 263.231 259.451 262.622Z" fill="#CD0E0E"/>
<path d="M271.346 300.189C271.53 299.481 270.822 298.674 270.156 298.915C269.463 299.17 268.995 299.778 268.344 300.147C267.721 300.515 266.999 300.727 266.305 300.812C264.931 300.968 263.544 300.671 262.354 300.005C259.225 298.249 257.356 294.766 255.076 292.005C253.023 289.512 250.29 286.978 246.934 287.034C244.286 287.091 241.511 288.663 240.576 291.566C240.548 291.636 240.633 291.707 240.675 291.636C242.459 288.408 246.523 288.068 249.214 289.527C252.414 291.268 254.297 294.723 256.52 297.612C258.531 300.217 260.981 302.681 264.238 303.234C266.404 303.588 270.553 303.12 271.346 300.189Z" fill="#CD0E0E"/>
<path d="M303.943 282.305C302.867 273.71 297.231 265.072 288.622 264.973C285.053 264.931 281.103 266.545 278.794 269.802C277.647 271.416 276.925 273.342 275.736 274.928C274.249 276.896 272.196 277.151 270.652 275.338C268.925 273.342 268.769 270.297 267.24 268.159C266.064 266.516 264.323 265.61 262.355 266.347C262.27 266.375 262.326 266.531 262.411 266.502C265.045 265.667 266.716 268.669 267.452 270.849C268.118 272.846 268.585 274.942 269.916 276.528C271.021 277.873 272.649 278.638 274.391 278.142C275.948 277.703 277.109 276.287 278.058 274.899C279.106 273.37 279.998 271.657 281.343 270.382C282.604 269.193 284.147 268.428 285.747 268.032C289.287 267.139 292.997 268.102 295.673 270.51C299.058 273.554 300.7 278.085 301.904 282.631C302.215 283.82 304.127 283.749 303.943 282.305Z" fill="#CD0E0E"/>
<path d="M313.104 297.895C313.019 297.824 312.892 297.938 312.963 298.037C314.775 300.826 315.936 304.211 315.936 307.736C315.922 307.722 315.922 307.708 315.908 307.694C315.073 306.703 314.166 305.896 313.161 305.117C312.694 304.749 312.212 304.38 311.703 304.083C311.164 303.757 310.456 303.588 309.961 303.191C309.876 303.12 309.805 303.276 309.876 303.347C310.343 303.871 310.626 304.65 311.037 305.23C311.391 305.754 311.816 306.221 312.226 306.703C313.076 307.68 313.954 308.501 314.959 309.28C315.342 309.549 315.667 309.45 315.88 309.195C315.866 309.308 315.866 309.421 315.851 309.535C315.37 313.91 313.048 318.102 309.876 320.962C308.729 321.996 309.947 324.275 311.179 323.284C318.754 317.139 320.114 304.225 313.104 297.895Z" fill="#CD0E0E"/>
<path d="M270.255 327.348C270.071 325.408 269.731 323.497 269.264 321.642C268.768 319.73 268.06 317.946 267.494 316.077C267.452 315.921 267.239 315.978 267.282 316.147C268.202 319.206 268.174 322.76 268.06 326.017C267.961 329.217 267.522 332.417 266.829 335.561C265.441 341.862 262.736 347.951 258.871 353.049C256.605 356.037 254.169 358.727 251.521 361.29C250.332 362.437 252.003 364.462 253.277 363.683C259.069 360.143 263.515 354.295 266.531 347.951C269.547 341.607 270.935 334.216 270.255 327.348Z" fill="#CD0E0E"/>
<path d="M275.396 340.517C275.438 336.524 275.976 332.772 277.449 328.991C278.893 325.281 281.017 321.911 283.198 318.64C283.226 318.611 283.198 318.569 283.17 318.583C277.449 322.562 274.589 330.095 273.824 336.991C273.428 340.602 273.555 344.581 272.238 348.022C271.19 350.769 268.995 353.091 266.305 353.672C264.932 353.955 265.54 356.306 266.744 356.277C269.718 356.221 272.167 353.898 273.498 351.024C275.042 347.682 275.353 344.114 275.396 340.517Z" fill="#CD0E0E"/>
<path d="M285.846 247.457C279.502 250.034 273.059 252.384 266.404 253.149C263.133 253.531 259.862 253.588 256.619 253.319C254.963 253.177 253.32 252.908 251.692 252.569C250.927 252.413 250.177 252.229 249.412 252.03C248.548 251.79 247.741 251.266 246.863 251.138C245.702 250.983 245.15 252.767 246.226 253.305C247.019 253.687 247.897 253.701 248.746 253.9C249.61 254.098 250.488 254.296 251.366 254.452C252.966 254.749 254.58 254.947 256.209 255.089C259.621 255.386 263.062 255.344 266.489 254.919C273.272 254.098 280.139 252.087 285.973 247.782C286.115 247.669 286.002 247.386 285.846 247.457Z" fill="#CD0E0E"/>
<path d="M277.166 201.649C275.466 198.689 273.116 196.24 270.397 194.399C265.016 190.774 258.106 189.726 251.791 192.119C251.635 192.176 251.72 192.431 251.876 192.402C257.908 191.043 264.181 192.162 269.25 195.489C271.742 197.132 273.937 199.327 275.523 201.989C276.33 203.362 277.01 204.835 277.406 206.435C277.803 207.993 277.845 209.706 277.959 211.334C277.987 211.844 278.752 212.297 278.992 211.632C280.238 208.276 278.752 204.41 277.166 201.649Z" fill="#CD0E0E"/>
<path d="M223.244 277.986C219.491 277.547 215.895 278.651 212.482 280.606C210.698 281.611 209.013 282.829 207.526 284.273C207.554 284.16 207.583 284.032 207.611 283.919C208.885 279.034 208.914 274.078 208.659 269.164C208.659 268.98 208.376 268.895 208.361 269.122C207.838 273.738 206.478 278.297 205.147 282.758C203.788 287.36 201.82 291.707 200.248 296.224C199.979 297.003 200.842 298.023 201.48 297.23C202.966 295.431 204.17 293.364 205.133 291.183C205.402 291.24 205.685 291.169 205.94 290.914C208.574 288.422 211.08 285.746 214.026 283.721C216.957 281.696 220.199 280.195 223.371 278.751C223.754 278.581 223.598 278.028 223.244 277.986Z" fill="#CD0E0E"/>
<path d="M274.66 198.364C272.564 195.886 269.066 195.206 265.994 195.248C262.793 195.305 259.777 196.41 257.243 198.746C257.214 198.774 257.229 198.859 257.285 198.831C259.961 197.613 262.963 196.976 265.795 197.103C268.755 197.231 271.162 198.619 273.796 199.808C274.688 200.204 275.269 199.086 274.66 198.364Z" fill="#CD0E0E"/>
<path d="M277.151 170.553C275.523 169.35 274.191 167.99 273.328 166.036C272.393 163.912 272.223 161.434 272.167 159.069C272.11 156.506 272.294 153.929 272.223 151.366C272.152 148.492 271.798 145.66 271.798 142.785C271.798 142.771 271.77 142.757 271.77 142.785C271.558 145.815 270.878 148.803 270.666 151.833C270.467 154.765 270.198 157.738 270.241 160.669C270.312 165.201 271.784 171.785 276.528 172.663C277.774 172.89 278.015 171.19 277.151 170.553Z" fill="#CD0E0E"/>
<path d="M262.92 171.955C261.15 168.486 257.837 166.447 254.112 166.503C253.971 166.503 253.985 166.744 254.098 166.772C257.256 167.523 260.145 169.774 261.589 172.89C263.062 176.033 262.608 179.375 261.617 182.745C261.334 183.75 262.693 184.43 263.203 183.453C265.044 179.941 264.577 175.198 262.92 171.955Z" fill="#CD0E0E"/>
<path d="M255.076 326.116C255.175 321.302 254.099 316.728 251.876 312.749C251.791 312.579 251.508 312.693 251.593 312.891C254.311 319.957 254.382 328.75 251.168 336.057C248.053 343.137 242.006 348.518 235.209 350.812C233.411 351.42 231.542 351.859 229.673 352.043C229.673 352.043 229.659 352.043 229.644 352.043C228.115 352.539 226.543 352.893 224.943 353.12C224.065 353.36 223.173 353.544 222.267 353.629C222.253 354.479 222.706 355.414 223.485 355.654C227.081 356.801 231.429 356.178 235.082 354.918C238.82 353.644 242.374 351.52 245.39 348.702C251.479 343.023 254.878 334.513 255.076 326.116Z" fill="#CD0E0E"/>
<path d="M267.635 321.783C269.009 312.013 265.483 301.081 256.548 297.909C252.725 296.564 248.307 297.286 244.894 300.048C241.213 303.035 239.797 307.595 240.221 312.282C240.802 318.696 243.606 324.474 245.022 330.605C245.064 330.775 245.291 330.718 245.248 330.534C244.653 327.929 244.328 325.21 243.917 322.534C243.549 320.24 243.039 317.988 242.685 315.695C242.02 311.531 241.765 307.029 244.823 303.616C247.316 300.826 251.153 299.58 254.466 300.317C258.261 301.152 261.306 304.027 263.104 307.652C265.214 311.885 265.724 316.7 265.964 321.557C266.021 322.52 267.465 322.973 267.635 321.783Z" fill="#CD0E0E"/>
<path d="M309.663 266.771C308.955 266.502 308.233 266.063 307.553 265.582C307.709 265.299 307.709 264.902 307.44 264.633C305.273 262.481 303.192 260.045 301.577 257.341C300.813 256.066 300.076 254.678 299.467 253.22C299.128 251.422 298.774 249.609 298.49 247.782C298.505 247.613 298.519 247.428 298.533 247.259C298.887 247.159 299.213 246.862 299.312 246.338C299.609 244.738 300.034 243.152 300.36 241.552C300.416 241.311 300.402 241.099 300.36 240.901L300.487 240.263C300.799 239.598 301.138 238.947 301.492 238.295C302.285 236.865 300.317 235.081 299.227 236.426C298.49 237.346 297.853 238.352 297.315 239.414C297.244 238.479 296.055 237.828 295.517 238.904C295.191 239.541 294.851 240.193 294.511 240.844C292.841 239.286 290.221 238.239 288.154 239.711C287.361 240.292 287.87 241.623 288.706 241.637C289.697 241.637 290.702 241.538 291.637 241.878C292.572 242.189 293.421 242.77 294.072 243.549C294.752 244.37 295.12 245.347 295.248 246.381C295.135 247.301 295.064 248.236 295.064 249.156C294.965 249.609 294.823 250.048 294.667 250.487C292.6 256.08 287.106 258.7 282.305 260.64C282.178 260.682 282.22 260.923 282.362 260.909C287.261 260.527 292.727 258.403 295.517 253.815C295.687 254.664 295.913 255.5 296.197 256.293C297.287 259.436 299.113 262.268 301.521 264.307C302.654 265.27 303.942 266.049 305.316 266.545C306.788 267.083 308.105 267.069 309.649 267.196C309.889 267.21 309.833 266.828 309.663 266.771Z" fill="#CD0E0E"/>
<path d="M239.966 214.081C238.381 213.586 236.752 213.218 235.294 212.354C233.878 211.533 232.66 210.343 231.711 208.941C229.913 206.279 229.729 203.206 229.799 199.921C229.828 198.647 228.171 198.35 227.817 199.638C226.783 203.405 228.171 207.724 230.267 210.541C231.711 212.467 234.118 214.166 236.639 214.676C235.534 214.988 234.472 215.413 233.439 215.979C231.216 217.168 229.191 218.839 227.52 220.85C223.838 225.24 221.969 231.314 222.804 236.964C222.974 238.182 224.688 238.423 224.645 236.95C224.489 231.796 225.934 226.415 229.148 222.308C230.592 220.468 232.32 218.938 234.246 217.763C235.223 217.168 236.242 216.63 237.29 216.205C238.041 215.908 239.329 215.611 239.811 214.846C239.867 214.761 239.839 214.676 239.782 214.62C239.768 214.62 239.754 214.605 239.754 214.605C239.825 214.577 239.91 214.563 239.995 214.535C240.207 214.464 240.136 214.138 239.966 214.081Z" fill="#CD0E0E"/>
<path d="M288.168 291.438C286.002 290.22 283.226 290.447 280.819 291.112C278.242 291.849 275.721 293.152 273.569 294.936C271.898 296.323 270.397 298.037 269.179 299.963C269.066 300.005 268.967 300.076 268.868 300.175C268.245 300.84 267.693 301.563 267.126 302.285C266.843 301.888 266.305 301.747 265.965 302.101C265.668 301.917 265.299 301.874 264.945 302.129C264.082 302.724 263.147 303.12 263.175 304.366C263.204 305.287 263.714 306.179 264.436 306.604C264.436 306.618 264.45 306.618 264.45 306.618C264.436 307.793 264.705 308.954 265.285 310.002C265.413 310.229 265.611 310.441 265.866 310.583C265.866 310.922 265.866 311.248 265.88 311.588C265.951 313.131 268.202 313.839 268.528 311.956C269.448 306.519 271.431 301.393 275.438 297.598C277.236 295.899 279.346 294.596 281.569 293.775C283.736 292.967 285.987 292.684 288.14 291.863C288.324 291.792 288.324 291.523 288.168 291.438Z" fill="#CD0E0E"/>
<path d="M279.275 210.924C280.96 209.819 279.303 207.086 277.618 207.979C272.039 210.91 268.018 216.645 265.823 222.804C263.656 228.907 263.203 235.435 265.653 241.212C265.695 241.297 265.823 241.255 265.809 241.156C265.072 235.492 265.823 229.247 268.173 223.88C270.538 218.457 274.574 214.011 279.275 210.924Z" fill="#CD0E0E"/>
<path d="M309.861 191.057C309.975 188.891 310.159 186.979 309.507 184.912C308.856 182.844 307.723 181.046 306.265 179.587C303.475 176.812 299.17 174.631 295.191 175.962C293.648 176.472 294.398 178.724 295.659 178.823C298.93 179.078 302.002 179.715 304.509 182.037C305.698 183.127 306.774 184.43 307.638 185.846C308.559 187.347 309.536 189.188 309.635 191.057C309.649 191.227 309.861 191.241 309.861 191.057Z" fill="#CD0E0E"/>
<path d="M318.244 210.499C318.102 210.145 317.649 210.145 317.621 210.598C317.479 213.954 316.955 217.324 315.667 220.482C314.392 223.597 312.311 226.457 309.875 228.624C308.969 229.431 309.847 231.088 310.88 230.422C316.927 226.585 320.821 217.452 318.244 210.499Z" fill="#CD0E0E"/>
<path d="M248.137 136.668C246.339 140.293 244.781 144.031 243.478 147.854C243.139 136.88 248.293 126.09 257.171 119.548C257.993 118.954 258.828 118.401 259.692 117.878C259.026 118.911 258.446 119.987 257.95 121.106C254.127 125.878 250.856 131.188 248.137 136.668ZM328.623 165.923C328.057 165.54 327.405 165.328 326.712 165.158C327.618 162.156 327.689 158.659 327.59 155.614C327.476 152.287 326.952 148.945 325.947 145.844C323.908 139.557 320.212 133.992 315.214 130.225C312.438 128.115 309.337 126.742 305.953 126.034C305.953 126.034 305.939 126.034 305.925 126.034C305.91 125.722 305.882 125.411 305.811 125.085C305.641 124.32 305.415 123.584 305.16 122.848C304.636 121.389 303.928 120.086 303.05 118.855C301.28 116.405 298.944 114.493 296.296 113.29C294.653 112.539 292.826 112.058 290.929 111.874C290.858 111.69 290.745 111.505 290.575 111.364C287.899 109.027 284.217 107.909 280.776 107.498C277.321 107.088 273.739 107.555 270.383 108.971C267.905 110.019 265.526 111.534 263.458 113.417C262.326 113.757 261.221 114.408 260.216 114.946C258.998 115.612 257.823 116.362 256.704 117.184C254.424 118.84 252.328 120.78 250.516 122.933C246.664 127.492 244.172 133.085 243.195 138.962C242.643 142.332 242.6 145.773 243.054 149.171C241.553 153.788 240.434 158.531 239.698 163.36C238.905 168.613 238.367 174.051 239.046 179.233C239.075 179.474 239.457 179.63 239.499 179.304C240.094 174.787 240.42 170.27 241.227 165.781C242.034 161.307 243.167 156.874 244.64 152.57C247.599 143.918 251.465 135.677 256.577 128.172C259.083 124.504 261.872 121.092 264.761 117.778C265.582 117.127 266.474 116.589 267.381 116.107C268.683 115.428 270.099 114.918 271.515 114.691C272.28 114.564 273.045 114.564 273.809 114.578C274.135 114.592 274.503 114.635 274.829 114.55C275.07 114.479 275.24 114.323 275.452 114.337C275.778 114.352 275.778 113.828 275.565 113.7C275.339 113.573 275.225 113.275 274.999 113.091C274.687 112.851 274.305 112.723 273.937 112.61C273.116 112.398 272.252 112.298 271.402 112.27C270.652 112.242 269.873 112.284 269.122 112.412C269.717 112.114 270.34 111.845 270.963 111.619C273.979 110.514 277.179 110.132 280.266 110.429C281.81 110.585 283.325 110.939 284.783 111.463C285.265 111.633 285.732 111.845 286.185 112.058C283.552 112.539 281.003 113.672 278.949 115.584C278.072 116.377 278.652 118.416 279.884 117.863C282.277 116.773 284.826 115.725 287.375 115.371C289.98 115.003 292.671 115.286 295.106 116.136C297.471 116.971 299.524 118.486 301.28 120.327C302.172 121.248 302.979 122.31 303.701 123.4C304.07 123.938 304.409 124.504 304.707 125.085C305.061 125.765 305.556 126.501 305.797 127.223C305.84 127.336 306.052 127.351 306.024 127.181C305.967 126.898 305.953 126.6 305.939 126.303C310.951 128.866 315.653 132.703 318.952 137.532C322.195 142.304 324.092 148.138 324.474 154.198C324.588 155.855 324.602 157.526 324.46 159.197C324.319 160.953 323.908 162.68 323.724 164.422C322.322 163.926 320.963 163.275 319.66 162.553C318.258 161.774 316.998 160.825 315.766 159.806C315.143 159.282 314.576 158.701 313.967 158.149C313.514 157.724 313.075 157.172 312.495 156.959C312.438 156.931 312.396 157.002 312.396 157.059C312.41 158.63 313.854 160.245 314.704 161.349C315.808 162.779 317.168 163.969 318.584 165.017C320.014 166.093 321.586 166.872 323.257 167.495C324.743 168.033 326.882 168.925 328.482 168.288C329.501 167.877 329.402 166.447 328.623 165.923Z" fill="#CD0E0E"/>
<path d="M292.883 122.253C290.08 121.602 287.389 121.913 284.854 123.768C283.608 124.674 282.603 125.807 281.824 127.195C281.116 128.483 280.21 130.409 280.904 131.783C281.116 132.179 281.739 132.491 282.15 132.137C283.042 131.344 283.099 129.758 283.623 128.668C284.175 127.535 284.968 126.473 285.817 125.581C287.616 123.712 290.405 122.168 292.827 122.536C292.997 122.565 293.025 122.295 292.883 122.253Z" fill="#CD0E0E"/>
<path d="M218.132 248.037C218.358 246.324 218.415 244.582 218.599 242.855C218.769 241.241 218.967 239.626 219.222 238.026C219.718 234.699 220.369 231.399 221.148 228.128C221.941 224.829 222.889 221.558 223.951 218.33C224.999 215.101 226.26 211.943 227.166 208.687C227.222 208.502 226.968 208.219 226.812 208.432C224.957 211.235 223.668 214.393 222.479 217.522C221.275 220.765 220.256 224.079 219.378 227.42C218.514 230.762 217.806 234.118 217.268 237.517C216.73 240.887 216.149 244.384 216.163 247.797C216.163 248.901 217.976 249.255 218.132 248.037Z" fill="#CD0E0E"/>
<path d="M222.96 357.623C214.195 362.579 202.867 360.979 195.844 353.771C192.403 350.259 190.236 345.657 189.628 340.8C188.905 335.094 190.095 329.317 191.412 323.794C192.247 320.325 193.21 316.898 194.272 313.486C194.796 311.786 195.377 310.087 195.943 308.402C196.509 306.745 197.161 305.103 197.543 303.389C197.571 303.304 197.43 303.205 197.359 303.29C196.481 304.635 195.872 306.165 195.235 307.637C194.584 309.167 193.989 310.724 193.408 312.282C192.219 315.44 191.171 318.654 190.222 321.897C188.523 327.745 186.98 333.791 187.39 339.937C188.098 350.741 196.184 360.398 206.832 362.664C212.85 363.924 219.194 362.975 224.546 359.959C225.962 359.166 224.376 356.83 222.96 357.623Z" fill="#CD0E0E"/>
<path d="M232.844 191C232.83 179.545 234.996 168.231 239.57 157.696C240.859 154.708 242.36 151.819 243.861 148.931C244.002 148.648 243.549 148.294 243.351 148.563C240.009 153.278 237.531 158.645 235.563 164.054C233.58 169.534 232.235 175.269 231.513 181.046C231.102 184.359 230.876 187.687 230.918 191.029C230.932 192.275 232.858 192.36 232.844 191Z" fill="#CD0E0E"/>
<path d="M255.289 292.529C255.529 291.24 255.458 289.796 255.43 288.479C255.388 287.091 255.232 285.703 254.949 284.344C254.665 283.027 254.283 281.753 253.773 280.507C253.249 279.289 252.541 278.199 251.904 277.052C251.89 277.037 251.862 277.037 251.876 277.066C253.009 279.289 253.618 282.022 254 284.5C254.184 285.732 254.297 286.964 254.326 288.21C254.34 289.583 254.099 290.843 253.972 292.189C253.901 292.996 255.119 293.449 255.289 292.529Z" fill="#CD0E0E"/>
<path d="M270.071 194.371C263.402 187.135 253.037 184.26 243.649 187.305C241.142 188.112 238.806 189.372 236.654 190.887C236.611 190.93 236.668 191.015 236.724 190.986C241.581 187.871 247.599 186.583 253.32 187.177C259.423 187.8 265.214 190.788 269.363 195.277C269.93 195.886 270.595 194.951 270.071 194.371Z" fill="#CD0E0E"/>
<path d="M258.658 167.424C257.242 166.348 255.953 165.172 254.99 163.657C254.013 162.156 253.348 160.443 252.966 158.701C252.045 154.538 252.385 149.979 253.093 145.815C253.107 145.773 253.05 145.759 253.036 145.801C252.173 150.29 251.125 154.736 252.073 159.324C252.824 162.878 254.693 166.758 257.992 168.571C258.729 168.967 259.281 167.905 258.658 167.424Z" fill="#CD0E0E"/>
<path d="M257.186 253.461C255.911 253.319 254.481 253.616 253.221 253.829C252.385 253.956 251.564 254.126 250.729 254.296C250.729 254.211 250.715 254.14 250.686 254.055C250.7 253.659 250.417 253.206 249.978 253.262C249.61 253.305 249.242 253.362 248.874 253.404C248.732 252.965 248.307 252.597 247.798 252.739C247.444 252.838 247.09 252.923 246.721 253.008C246.452 252.753 246.056 252.625 245.674 252.852C244.498 253.546 243.309 254.225 242.162 254.976C241.666 255.302 241.808 255.882 242.176 256.208C241.411 256.463 240.647 256.732 239.896 257.015C239.372 257.213 239.443 257.836 239.769 258.148C237.9 259.068 236.101 260.102 234.36 261.249C232.165 262.707 229.871 264.392 228.228 266.474C228.2 266.531 228.257 266.587 228.299 266.559C230.593 265.299 232.717 263.713 234.969 262.382C237.291 261.008 239.726 259.804 242.219 258.757C244.64 257.751 247.132 256.873 249.653 256.179C250.927 255.84 252.187 255.514 253.476 255.245C254.764 254.976 256.195 254.863 257.426 254.438C257.993 254.24 257.653 253.503 257.186 253.461Z" fill="#CD0E0E"/>
<path d="M331.512 270.014C332.051 267.777 332.362 265.497 332.461 263.189C332.631 258.686 332.051 254.126 330.55 249.85C330.125 248.632 329.629 247.443 329.077 246.282C328.525 245.12 327.93 243.888 327.052 242.94C326.5 242.345 325.693 243.025 325.933 243.704C326.386 245.021 327.194 246.239 327.774 247.513C328.312 248.717 328.808 249.963 329.218 251.223C330.096 253.914 330.719 256.647 331.031 259.45C331.343 262.24 331.343 265.058 331.045 267.833C330.734 270.637 330.181 273.611 329.19 276.259C329.176 276.315 329.261 276.372 329.289 276.315C330.181 274.234 330.989 272.223 331.512 270.014Z" fill="#CD0E0E"/>
<path d="M128.442 344.793C126.332 342.981 124.066 341.437 122.027 339.483C119.974 337.501 118.02 335.377 116.236 333.097C112.582 328.438 109.595 323.1 107.145 317.493C107.131 317.436 107.046 317.45 107.074 317.521C108.83 323.596 111.605 329.132 115.075 334.06C116.788 336.467 118.629 338.747 120.639 340.814C122.693 342.924 124.958 345.204 127.436 346.677C128.456 347.286 129.291 345.53 128.442 344.793Z" fill="#CD0E0E"/>
<path d="M128.569 351.534C128.584 350.981 128.286 350.599 127.847 350.429C127.592 350.344 127.337 350.302 127.097 350.33C127.196 348.971 127.847 347.725 129.051 347.073C130.283 346.422 129.546 344.553 128.371 344.836C126.247 345.331 124.944 348.857 126.035 350.755C125.1 351.477 124.59 352.964 125.199 354.139C125.256 354.224 125.369 354.196 125.398 354.082C125.624 353.006 126.913 352.426 127.776 352.497C128.215 352.539 128.555 351.973 128.569 351.534Z" fill="#CD0E0E"/>
<path d="M238.919 376.399C241.68 375.96 244.413 375.847 247.174 375.266C249.964 374.672 252.739 373.907 255.472 372.916C261.023 370.891 266.375 367.931 271.431 364.476C271.473 364.434 271.53 364.49 271.487 364.533C266.772 368.767 261.49 371.995 255.939 374.332C253.221 375.479 250.445 376.456 247.642 377.135C244.781 377.843 241.666 378.58 238.777 378.523C237.588 378.495 237.8 376.569 238.919 376.399Z" fill="#CD0E0E"/>
<path d="M240.095 375.932C236.795 374.374 232.944 373.751 229.432 372.831C225.807 371.868 222.21 370.792 218.614 369.772C211.406 367.719 204.185 365.68 196.977 363.626C182.647 359.563 168.317 355.428 153.959 351.463C149.937 350.358 145.916 349.268 141.894 348.178C138 347.116 133.922 345.742 129.901 345.346C129.348 345.289 129.405 346.125 129.787 346.323C133.03 347.895 136.726 348.815 140.167 349.849C143.763 350.939 147.374 352.001 150.971 353.077C158.15 355.23 165.372 357.283 172.579 359.364C186.909 363.513 201.239 367.648 215.569 371.783C219.591 372.93 223.598 374.091 227.62 375.252C231.584 376.399 235.648 378.211 239.769 378.65C241.312 378.82 241.171 376.441 240.095 375.932Z" fill="#CD0E0E"/>
<path d="M240.278 376.257C239.754 375.833 238.904 375.818 238.607 376.541C238.154 377.673 238.749 378.962 238.423 380.166C238.069 381.497 237.219 382.417 236.214 383.323C236.186 383.352 236.157 383.38 236.143 383.408C236.03 383.295 235.917 383.21 235.803 383.139C232.561 381.454 228.667 380.817 225.169 379.797C221.587 378.75 218.004 377.688 214.407 376.611C207.242 374.473 200.077 372.307 192.927 370.126C178.681 365.793 164.479 361.375 150.262 357C146.283 355.768 142.304 354.55 138.325 353.346C134.332 352.143 130.254 350.599 126.105 350.005C125.269 349.877 125.057 350.982 125.765 351.35C129.008 353.021 132.633 354.054 136.088 355.215C139.642 356.419 143.196 357.609 146.765 358.784C153.887 361.106 161.024 363.414 168.175 365.666C182.462 370.154 196.764 374.572 211.094 378.934C215.172 380.166 219.25 381.398 223.314 382.644C225.268 383.224 227.222 383.847 229.176 384.456C231.244 385.107 233.283 385.844 235.449 386.042C236.356 386.113 236.71 385.433 236.667 384.697C236.752 384.711 236.851 384.697 236.936 384.683C238.635 384.343 239.952 382.856 240.618 381.341C241.269 379.868 241.722 377.404 240.278 376.257Z" fill="#CD0E0E"/>
<path d="M132.505 363.372C132.562 361.828 132.619 360.285 132.647 358.727C132.689 356.815 132.93 354.72 132.463 352.836C132.392 352.61 132.024 352.525 131.925 352.766C131.188 354.621 131.245 356.872 131.075 358.84C130.934 360.54 130.82 362.239 130.707 363.938C131.245 363.57 131.868 363.386 132.505 363.372Z" fill="#CD0E0E"/>
<path d="M131.911 377.687C131.713 377.532 131.515 377.376 131.345 377.206C130.722 376.64 130.254 376.031 129.929 375.365C129.872 376.385 129.801 377.404 129.73 378.41C129.461 382.743 129.178 387.076 128.923 391.394C128.895 392.032 128.853 392.669 128.824 393.306C129.391 392.669 130.042 392.088 130.778 391.593C130.948 391.479 131.118 391.394 131.288 391.338C131.515 387.047 131.685 382.743 131.883 378.452C131.897 378.197 131.897 377.942 131.911 377.687Z" fill="#CD0E0E"/>
<path d="M227.336 392.966C227.421 393.15 227.492 393.349 227.563 393.533C228.158 392.074 228.767 390.616 229.375 389.157C230.197 387.246 231.103 385.348 231.627 383.323C231.811 382.644 230.777 382.006 230.31 382.601C229.021 384.215 228.129 386.127 227.195 387.954C226.728 388.846 226.274 389.752 225.821 390.644C226.756 390.998 227.351 392.003 227.336 392.966Z" fill="#CD0E0E"/>
<path d="M216.943 412.833C217.948 412.691 218.982 412.847 219.86 413.314C220.667 411.077 221.488 408.854 222.324 406.645C222.989 404.861 223.669 403.105 224.377 401.335C223.442 401.703 222.395 401.76 221.29 401.406C221.163 401.363 221.035 401.321 220.908 401.278C220.341 402.595 219.789 403.912 219.237 405.229C218.175 407.749 217.141 410.298 216.136 412.89C216.405 412.833 216.674 412.819 216.943 412.833Z" fill="#CD0E0E"/>
<path d="M215.286 420.437C215.201 420.352 215.116 420.267 215.045 420.182C214.521 419.941 214.124 419.573 213.827 419.148C212.878 421.881 212.015 424.642 211.264 427.432C210.301 427.772 209.848 429.273 210.839 430.335C211.038 430.561 211.236 430.774 211.434 431C212.156 431.765 213.643 431.623 214.025 430.575C215.158 427.474 216.121 424.317 217.155 421.173C216.461 421.102 215.824 420.918 215.286 420.437Z" fill="#CD0E0E"/>
<path d="M205.657 441.705C203.462 440.289 200.404 439.907 197.897 439.242C195.264 438.534 192.644 437.825 190.024 437.132C184.856 435.758 179.687 434.399 174.519 433.025C164.111 430.278 153.689 427.574 143.239 425.011C140.28 424.288 137.335 423.51 134.361 422.858C131.543 422.235 128.725 421.513 125.837 421.357C125.539 421.343 125.553 421.768 125.766 421.881C130.495 424.274 135.876 425.563 140.931 427.078C146.071 428.636 151.226 430.137 156.38 431.638C166.759 434.654 177.139 437.627 187.546 440.573C190.492 441.408 193.437 442.229 196.382 443.051C197.77 443.433 199.172 443.815 200.559 444.212C202.089 444.637 203.618 445.217 205.218 445.118C207.201 444.991 206.988 442.569 205.657 441.705Z" fill="#CD0E0E"/>
<path d="M209.778 441.153C208.942 441.635 208.036 441.819 207.102 441.819C207.102 442.442 207.116 443.065 207.13 443.702C207.144 444.056 207.682 444.339 207.923 444.013C208.206 443.645 208.447 443.263 208.716 442.881C208.914 442.626 209.169 442.045 209.438 441.875C209.735 441.677 209.934 441.351 209.99 440.997C209.919 441.054 209.849 441.096 209.778 441.153Z" fill="#CD0E0E"/>
<path d="M202.612 438.633C200.814 436.877 197.968 435.985 195.73 434.923C193.351 433.776 190.987 432.643 188.608 431.496C183.864 429.23 179.092 426.993 174.334 424.741C164.833 420.239 155.289 415.792 145.703 411.473C140.421 409.095 135.196 406.602 129.631 404.96C129.447 404.903 129.447 405.158 129.56 405.243C133.936 408.259 138.665 410.638 143.395 413.059C148.082 415.467 152.783 417.831 157.512 420.196C166.929 424.897 176.373 429.556 185.861 434.144C188.466 435.404 191.072 436.65 193.663 437.91C195.037 438.576 196.424 439.241 197.798 439.907C199.143 440.558 200.375 441.224 201.89 441.38C203.448 441.535 203.419 439.411 202.612 438.633Z" fill="#CD0E0E"/>
<path d="M211.59 428.848C209.268 427.191 206.393 426.129 203.844 424.869C201.253 423.595 198.648 422.306 196.042 421.032C190.845 418.469 185.649 415.906 180.452 413.343C170.129 408.259 159.806 403.176 149.427 398.206C146.51 396.804 143.579 395.416 140.648 394.071C137.717 392.726 134.842 391.31 131.755 390.403C131.061 390.205 130.736 391.196 131.26 391.579C135.848 394.935 141.172 397.37 146.213 399.976C151.367 402.624 156.535 405.257 161.718 407.877C172.154 413.13 182.604 418.37 193.054 423.609C195.943 425.053 198.846 426.512 201.749 427.97C204.637 429.415 207.597 431.298 210.698 432.247C211.548 432.501 212.383 431.949 212.61 431.128C212.864 430.179 212.341 429.386 211.59 428.848Z" fill="#CD0E0E"/>
<path d="M214.592 418.95C212.27 417.052 209.239 415.906 206.577 414.56C203.929 413.215 201.281 411.856 198.619 410.511C193.252 407.778 187.872 405.031 182.491 402.312C171.729 396.86 160.925 391.479 150.107 386.141C147.062 384.64 144.004 383.167 140.931 381.723C139.487 381.029 138.014 380.349 136.541 379.712C135.069 379.061 133.497 378.339 131.911 378.056C131.571 377.999 131.458 378.395 131.684 378.608C133.794 380.59 136.654 381.935 139.161 383.351C141.752 384.824 144.386 386.24 147.02 387.642C152.344 390.502 157.682 393.32 163.049 396.11C173.754 401.689 184.487 407.24 195.221 412.762C198.251 414.32 201.267 415.877 204.297 417.421C205.728 418.171 207.172 418.907 208.602 419.644C210.16 420.451 211.689 421.385 213.402 421.824C215.116 422.263 215.824 419.941 214.592 418.95Z" fill="#CD0E0E"/>
<path d="M220.908 412.252C218.373 410.1 215.059 408.656 212.157 407.013C209.339 405.427 206.521 403.841 203.717 402.241C197.94 398.97 192.177 395.685 186.399 392.414C175.015 385.943 163.644 379.443 152.146 373.171C148.875 371.386 145.604 369.588 142.305 367.832C139.161 366.175 136.032 364.179 132.591 363.273C132.265 363.173 132.18 363.598 132.378 363.797C134.757 366.09 137.745 367.676 140.549 369.418C143.31 371.131 146.1 372.802 148.875 374.473C154.582 377.9 160.316 381.242 166.065 384.612C177.379 391.239 188.75 397.767 200.106 404.337C203.363 406.206 206.606 408.089 209.848 409.959C211.463 410.907 213.091 411.842 214.705 412.791C216.32 413.725 217.863 414.73 219.633 415.339C221.502 415.991 222.139 413.286 220.908 412.252Z" fill="#CD0E0E"/>
<path d="M224.617 400.117C219.732 396.903 214.351 394.34 209.225 391.536C204.071 388.718 198.916 385.914 193.762 383.125C183.595 377.617 173.442 372.108 163.19 366.756C160.344 365.269 157.484 363.782 154.595 362.324C153.08 361.573 151.565 360.823 150.036 360.086C148.775 359.478 147.515 358.812 146.099 358.713C145.929 358.713 145.858 358.939 145.957 359.053C147.529 361.063 150.262 362.31 152.429 363.612C154.992 365.142 157.569 366.657 160.146 368.158C165.243 371.089 170.355 374.006 175.467 376.909C185.535 382.629 195.688 388.208 205.812 393.802C208.644 395.373 211.476 396.931 214.308 398.503C217.268 400.131 220.199 401.915 223.3 403.303C225.58 404.323 226.429 401.307 224.617 400.117Z" fill="#CD0E0E"/>
<path d="M227.761 389.398C227.634 389.355 227.506 389.341 227.379 389.355C226.076 388.449 224.49 387.84 223.074 387.132L218.076 384.612C214.663 382.898 211.236 381.227 207.81 379.542C204.468 377.9 201.112 376.257 197.756 374.643C194.513 373.1 191.214 371.103 187.674 370.409C187.589 370.395 187.561 370.494 187.617 370.551C190.237 373.015 193.664 374.586 196.765 376.37C200.092 378.282 203.448 380.151 206.79 382.006C210.061 383.833 213.332 385.674 216.617 387.458C218.274 388.364 219.917 389.256 221.559 390.148C223.202 391.04 224.915 392.286 226.728 392.768C227.138 392.881 227.492 392.839 227.775 392.683C227.889 392.966 228.002 393.264 228.073 393.575C228.314 394.651 228.285 395.798 227.903 396.846C227.549 397.823 226.898 398.687 226.076 399.31C225.156 400.004 223.726 400.202 223.074 401.151C222.565 401.915 222.819 403.048 223.669 403.473C225.269 404.266 227.011 403.289 228.271 402.241C229.63 401.122 230.636 399.636 231.089 397.936C231.882 395.019 230.891 390.587 227.761 389.398Z" fill="#CD0E0E"/>
<path d="M220.695 412.224C219.704 411.587 219.123 412.875 219.548 413.64C220.341 415.141 220.695 416.826 219.548 418.242C219.052 418.837 218.429 419.247 217.693 419.474C216.914 419.701 216.15 419.616 215.456 420.139C214.719 420.706 214.804 421.796 215.47 422.391C217.736 424.458 221.46 422.065 222.592 419.8C223.867 417.251 223.131 413.767 220.695 412.224Z" fill="#CD0E0E"/>
<path d="M212.468 430.335C211.788 429.655 210.797 430.392 211.109 431.255C211.689 432.87 212.015 434.569 211.675 436.183C211.802 436.565 211.873 437.004 211.76 437.344C211.746 437.387 211.732 437.415 211.717 437.457C211.76 437.698 211.76 437.953 211.717 438.194C211.505 439.397 210.84 440.516 209.777 441.153C208.659 441.805 207.413 441.918 206.153 441.748C205.629 441.677 205.204 441.408 204.892 441.04C202.952 441.167 203.618 444.212 205.445 444.325C208.8 444.537 212.057 442.668 213.629 439.695C215.158 436.792 214.875 432.685 212.468 430.335Z" fill="#CD0E0E"/>
<path d="M131.543 405.739C130.849 404.577 129.249 404.054 128.329 403.034C127.352 401.944 126.644 400.499 126.516 399.027C126.403 397.653 126.771 396.237 127.479 395.048C128.286 393.731 129.476 392.994 130.637 392.032C131.911 390.941 130.764 388.945 129.193 389.228C125.086 389.993 122.778 395.487 123.345 399.239C123.67 401.363 124.676 403.289 126.219 404.776C127.295 405.809 129.901 407.778 131.416 406.673C131.727 406.447 131.727 406.036 131.543 405.739Z" fill="#CD0E0E"/>
<path d="M132.166 378.296C131.798 377.588 131.062 377.192 130.495 376.668C129.872 376.102 129.349 375.464 128.881 374.771C128.074 373.524 127.536 372.094 127.593 370.579C127.72 367.294 130.184 365.113 133.016 363.924C135.154 363.032 133.752 360.129 131.727 360.441C127.168 361.106 124.067 366.19 124.194 370.523C124.251 372.788 125.185 375.096 126.686 376.795C127.763 377.999 130.297 380.166 132.053 379.189C132.379 378.99 132.294 378.565 132.166 378.296Z" fill="#CD0E0E"/>
<path d="M130.439 421.938C130.609 421.272 130.665 420.649 130.665 419.955C130.665 419.743 130.594 419.531 130.481 419.347C130.637 415.807 131.161 412.252 130.934 408.712C130.906 408.302 130.184 407.948 130.028 408.472C128.98 412.068 128.754 415.863 128.06 419.545C127.876 420.097 127.777 420.635 127.706 421.216C127.309 422.887 130 423.793 130.439 421.938Z" fill="#CD0E0E"/>
<path d="M198.067 444.254C198.548 442.371 195.235 440.714 194.555 442.838C193.238 446.931 189.996 449.72 185.974 451.094C181.4 452.665 176.402 452.184 171.729 451.377C162.185 449.763 150.928 448.191 144.103 440.601C140.903 437.047 139.118 432.36 139.543 427.545C139.571 427.248 139.118 426.965 138.963 427.319C138.099 429.429 137.858 431.453 138.198 433.733C138.552 436.013 139.387 438.151 140.52 440.148C143.154 444.806 147.515 448.092 152.372 450.187C157.895 452.566 163.814 453.699 169.69 454.789C175.17 455.823 180.976 456.644 186.441 455.101C191.794 453.6 196.651 449.791 198.067 444.254Z" fill="#CD0E0E"/>
<path d="M79.1074 195.617C78.1728 194.809 77.3657 193.974 76.2612 193.408C75.1284 192.827 74.0098 192.204 72.8486 191.666C70.4697 190.547 68.0342 189.542 65.6411 188.48C60.8975 186.384 56.168 184.288 51.4385 182.193C41.7389 177.902 31.7701 174.249 21.8014 170.638C19.0827 169.647 16.3639 168.627 13.6169 167.735C12.2433 167.282 10.8698 166.843 9.51042 166.39C7.528 165.753 5.4323 164.832 3.35076 165.682C-0.0193459 167.027 -1.01055 171.063 1.12762 174.022C1.94891 175.155 2.9118 176.132 4.21453 176.727C5.04998 177.109 5.95623 177.407 6.83415 177.718C8.03776 178.143 9.24137 178.568 10.445 178.993C12.9372 179.87 15.4293 180.692 17.9357 181.485C22.8492 183.056 27.7628 184.642 32.7047 186.101C37.5475 187.531 42.3761 189.004 47.2896 190.193C52.2598 191.383 57.2159 192.572 62.1861 193.776C64.9614 194.441 67.7227 195.107 70.4839 195.772C71.8716 196.098 73.2593 196.353 74.6611 196.608C75.2842 196.707 75.9214 196.905 76.5444 196.919C77.2949 196.933 78.0879 196.721 78.8242 196.65C79.3623 196.608 79.4897 195.942 79.1074 195.617Z" fill="#CD0E0E"/>
<path d="M289.937 6.70647C289.937 5.13469 289.456 3.84612 288.691 2.48675C287.742 0.787538 284.981 -0.543513 283.055 0.221133C279.53 1.60883 279.091 4.99309 278.255 8.24992C277.604 10.7138 276.967 13.1918 276.329 15.6698C275.055 20.6259 273.766 25.5819 272.492 30.5238C269.887 40.6341 267.224 50.7586 265.299 61.0105C265.015 62.5257 262.821 75.9211 265.384 75.6946C266.233 75.6238 266.644 75.0149 267.125 74.3777C267.918 73.344 268.74 72.3386 269.292 71.1492C270.311 68.9827 271.317 66.7737 272.223 64.5647C274.092 59.991 275.593 55.2332 277.052 50.5179C279.969 41.0872 282.857 31.6424 285.689 22.1693C286.496 19.5072 287.289 16.831 288.096 14.1689C288.479 12.8661 288.889 11.5776 289.258 10.2748C289.597 9.11369 289.937 7.9384 289.937 6.70647Z" fill="#CD0E0E"/>
<path d="M170.723 47.6293C169.548 43.8486 167.877 40.1953 166.22 36.5986C164.549 32.9736 162.864 29.3345 161.193 25.7095C159.282 21.5889 157.724 16.8311 154.623 13.461C153.405 12.1582 151.154 11.8326 149.625 12.5689C147.982 13.3477 147.104 15.1743 147.359 16.9727C147.685 19.3374 148.733 21.2632 149.766 23.373C150.672 25.1997 151.579 27.0405 152.485 28.8813C154.269 32.478 156.053 36.0605 157.823 39.6572C159.707 43.4521 161.618 47.3178 163.969 50.8437C166.121 54.058 168.118 57.6547 171.7 59.4672C172.097 59.6796 172.479 59.4672 172.578 59.0424C173.527 55.1625 171.856 51.2685 170.723 47.6293Z" fill="#CD0E0E"/>
<path d="M117.368 113.686C109.949 107.852 102.033 102.712 93.7635 98.1385C85.6356 93.6214 77.4086 89.3026 69.1674 85.0121C66.8876 83.8226 64.622 82.6473 62.3563 81.472C59.6234 80.056 56.4941 78.2577 53.3505 78.4701C49.6689 78.7108 48.3237 82.8456 50.3344 85.7059C51.3681 87.1786 52.4584 88.2406 54.0019 89.1751C55.0214 89.7982 56.0409 90.4212 57.1171 90.9593L63.5033 94.1737C67.6097 96.241 71.7162 98.3084 75.8085 100.376C84.0921 104.539 92.5316 108.305 101.056 111.93C105.941 113.998 110.911 115.598 116.009 117C117.991 117.552 118.784 114.805 117.368 113.686Z" fill="#CD0E0E"/>
<path d="M411.417 139.019C408.401 137.56 405.229 138.806 402.156 139.528C399.678 140.095 397.2 140.675 394.722 141.256C389.936 142.36 385.164 143.592 380.392 144.782C375.634 145.971 370.862 147.161 366.09 148.35C363.627 148.959 361.12 149.483 358.713 150.262C356.362 151.012 353.714 151.593 351.803 153.179C350.642 154.142 351.18 156.053 352.61 156.421C355.102 157.045 357.679 156.606 360.214 156.337C362.848 156.067 365.467 155.529 368.087 155.09C372.986 154.255 377.886 153.434 382.799 152.598C387.699 151.777 392.612 150.998 397.498 150.092C400.018 149.625 402.539 149.157 405.073 148.69C407.764 148.194 411.403 148.166 413.173 145.801C414.787 143.635 413.838 140.18 411.417 139.019Z" fill="#CD0E0E"/>
<path d="M452 275.069C452 273.172 451.179 271.883 449.961 270.481C448.375 268.655 446.265 268.315 444.042 267.975C442.513 267.748 440.998 267.508 439.482 267.281C436.537 266.828 433.592 266.361 430.632 265.95C424.713 265.143 418.809 264.322 412.904 263.5C400.783 261.829 388.633 260.385 376.498 258.912C373.156 258.502 369.815 258.233 366.459 257.992C363.386 257.765 359.379 257.072 356.632 258.771C355.4 259.521 355.796 261.277 356.646 262.113C358.897 264.279 362.522 264.931 365.467 265.639C368.384 266.347 371.287 267.097 374.233 267.663L391.862 271.005C403.686 273.257 415.552 275.282 427.404 277.335C430.774 277.915 434.144 278.453 437.514 278.992C439.114 279.246 440.714 279.501 442.314 279.756C444.934 280.167 447.724 280.931 450.032 279.119C451.349 278.057 452 276.754 452 275.069Z" fill="#CD0E0E"/>
</svg>
