<svg width="120" height="26" viewBox="0 0 120 26" fill="none" xmlns="http://www.w3.org/2000/svg">
<path fill-rule="evenodd" clip-rule="evenodd" d="M107.895 0.0317383L120 23.8305H112.775L107.966 14.2684L103.087 23.8305H95.8617L107.895 0.0317383Z" fill="#FF0000"/>
<path fill-rule="evenodd" clip-rule="evenodd" d="M91.1227 25.2041L103.227 1.39746H96.0025L91.1938 10.9596L86.314 1.39746H79.0891L91.1227 25.2041Z" fill="#FF0000"/>
<path fill-rule="evenodd" clip-rule="evenodd" d="M20.9257 7.7538H27.5426V23.8618H35.0992V7.7538H41.7161V1.39746H20.9257V7.7538Z" fill="#FF0000"/>
<path fill-rule="evenodd" clip-rule="evenodd" d="M11.3072 15.9661C12.1284 16.1319 14.2445 16.5425 13.676 17.6795C13.0048 19.006 8.18822 17.9243 6.77483 17.2926C4.95084 16.4082 4.95873 16.4082 4.0112 15.7055L0 20.5221C3.95593 23.1673 6.45109 24.249 11.5046 24.2175C16.3922 24.1938 21.043 22.3777 21.3668 17.411C21.8089 10.5415 15.6184 10.4151 10.7939 9.09648C10.0359 8.89118 8.66988 8.6464 8.90677 7.58833C9.09627 6.77503 10.9282 6.91716 11.6388 6.98823C13.5102 7.17773 15.729 8.0463 17.1818 9.08858L20.8614 4.07458C17.5135 1.76103 14.5998 0.852982 10.5334 0.963527C5.89836 1.08986 1.55553 2.94544 1.22389 8.21212C0.876464 13.8815 6.95644 15.0975 11.3072 15.9661Z" fill="#FF0000"/>
<path fill-rule="evenodd" clip-rule="evenodd" d="M62.4711 21.7932L58.5942 16.179C59.3443 15.7763 59.6127 15.6658 60.3155 15.0894C61.8 13.8734 62.5659 12.5548 62.8975 10.6439C63.3792 7.81711 62.4869 5.21141 60.2839 3.38741C58.6494 2.04508 55.9016 1.3976 53.6512 1.3976H41.8782V23.8619H49.3715V17.4424C51.2508 17.4424 50.856 17.2687 51.4561 18.1689L55.0172 23.5619C55.1436 23.7672 55.1436 23.8619 55.4515 23.8619H68.4879L73.573 14.2366L78.5159 23.8619H85.6145L73.5651 0L62.4711 21.7932ZM52.909 12.0336H49.3715V7.68288H52.4431C53.817 7.68288 55.4989 8.0461 55.4515 9.75165C55.4041 11.2914 54.4645 12.0336 52.909 12.0336Z" fill="#FF0000"/>
</svg>
